<mxfile host="Electron" modified="2023-06-11T04:45:06.973Z" agent="Mozilla/5.0 (Windows NT 10.0; Win64; x64) AppleWebKit/537.36 (KHTML, like Gecko) draw.io/21.1.2 Chrome/106.0.5249.199 Electron/21.4.3 Safari/537.36" etag="uauqXZpkyW4diZXcAlGO" version="21.1.2" type="device" pages="8">
  <diagram id="IPZO2Jd4XInDhN88eAM6" name="1_BookingRoom">
    <mxGraphModel dx="1290" dy="669" grid="1" gridSize="10" guides="1" tooltips="1" connect="1" arrows="1" fold="1" page="1" pageScale="1" pageWidth="1100" pageHeight="1700" math="0" shadow="0">
      <root>
        <mxCell id="0" />
        <mxCell id="1" parent="0" />
        <mxCell id="yGojeE6siL5GvnC_QIbg-1" value="Guest" style="shape=umlActor;verticalLabelPosition=bottom;verticalAlign=top;html=1;outlineConnect=0;" parent="1" vertex="1">
          <mxGeometry x="190" y="100" width="30" height="60" as="geometry" />
        </mxCell>
        <mxCell id="t00iX7iIWRQzHZ8eNa69-1" value="" style="html=1;points=[];perimeter=orthogonalPerimeter;" parent="1" vertex="1">
          <mxGeometry x="200" y="190" width="10" height="522" as="geometry" />
        </mxCell>
        <mxCell id="t00iX7iIWRQzHZ8eNa69-3" value="" style="html=1;points=[];perimeter=orthogonalPerimeter;" parent="1" vertex="1">
          <mxGeometry x="480" y="250" width="10" height="160" as="geometry" />
        </mxCell>
        <mxCell id="t00iX7iIWRQzHZ8eNa69-4" value="" style="endArrow=classic;html=1;rounded=0;exitX=1;exitY=0.126;exitDx=0;exitDy=0;exitPerimeter=0;" parent="1" source="t00iX7iIWRQzHZ8eNa69-1" target="t00iX7iIWRQzHZ8eNa69-3" edge="1">
          <mxGeometry width="50" height="50" relative="1" as="geometry">
            <mxPoint x="500" y="530" as="sourcePoint" />
            <mxPoint x="550" y="480" as="targetPoint" />
          </mxGeometry>
        </mxCell>
        <mxCell id="t00iX7iIWRQzHZ8eNa69-5" value="1. click()" style="text;html=1;align=center;verticalAlign=middle;resizable=0;points=[];autosize=1;strokeColor=none;fillColor=none;" parent="1" vertex="1">
          <mxGeometry x="315" y="225" width="70" height="30" as="geometry" />
        </mxCell>
        <mxCell id="a4RUO-VB6auh8plvOcPR-1" value="" style="endArrow=none;dashed=1;html=1;rounded=0;" parent="1" edge="1">
          <mxGeometry width="50" height="50" relative="1" as="geometry">
            <mxPoint x="484.57000000000005" y="250" as="sourcePoint" />
            <mxPoint x="484.57000000000005" y="180" as="targetPoint" />
          </mxGeometry>
        </mxCell>
        <mxCell id="a4RUO-VB6auh8plvOcPR-2" value="" style="ellipse;whiteSpace=wrap;html=1;aspect=fixed;" parent="1" vertex="1">
          <mxGeometry x="460" y="100" width="50" height="50" as="geometry" />
        </mxCell>
        <mxCell id="a4RUO-VB6auh8plvOcPR-3" value="" style="endArrow=none;html=1;rounded=0;" parent="1" edge="1">
          <mxGeometry width="50" height="50" relative="1" as="geometry">
            <mxPoint x="400" y="130" as="sourcePoint" />
            <mxPoint x="460" y="129.41" as="targetPoint" />
          </mxGeometry>
        </mxCell>
        <mxCell id="a4RUO-VB6auh8plvOcPR-4" value="" style="endArrow=none;html=1;rounded=0;" parent="1" edge="1">
          <mxGeometry width="50" height="50" relative="1" as="geometry">
            <mxPoint x="400" y="155" as="sourcePoint" />
            <mxPoint x="400" y="95" as="targetPoint" />
          </mxGeometry>
        </mxCell>
        <mxCell id="a4RUO-VB6auh8plvOcPR-5" value="create/cancel reservation button" style="text;html=1;align=center;verticalAlign=middle;resizable=0;points=[];autosize=1;strokeColor=none;fillColor=none;" parent="1" vertex="1">
          <mxGeometry x="365" y="65" width="190" height="30" as="geometry" />
        </mxCell>
        <mxCell id="a4RUO-VB6auh8plvOcPR-6" value="" style="html=1;points=[];perimeter=orthogonalPerimeter;" parent="1" vertex="1">
          <mxGeometry x="710" y="290" width="10" height="380" as="geometry" />
        </mxCell>
        <mxCell id="a4RUO-VB6auh8plvOcPR-7" value="" style="endArrow=classic;html=1;rounded=0;exitX=1.055;exitY=0.254;exitDx=0;exitDy=0;exitPerimeter=0;entryX=0.566;entryY=0;entryDx=0;entryDy=0;entryPerimeter=0;" parent="1" source="t00iX7iIWRQzHZ8eNa69-3" target="a4RUO-VB6auh8plvOcPR-6" edge="1">
          <mxGeometry width="50" height="50" relative="1" as="geometry">
            <mxPoint x="610" y="370" as="sourcePoint" />
            <mxPoint x="660" y="320" as="targetPoint" />
          </mxGeometry>
        </mxCell>
        <mxCell id="a4RUO-VB6auh8plvOcPR-8" value="1.1 CreateRequest()" style="text;html=1;align=center;verticalAlign=middle;resizable=0;points=[];autosize=1;strokeColor=none;fillColor=none;" parent="1" vertex="1">
          <mxGeometry x="540" y="260" width="130" height="30" as="geometry" />
        </mxCell>
        <mxCell id="mMYuAVqFExLfhnSItoR9-1" value="1.1.3 create()" style="html=1;verticalAlign=bottom;endArrow=open;dashed=1;endSize=8;" parent="1" edge="1">
          <mxGeometry x="0.0109" y="-2" relative="1" as="geometry">
            <mxPoint x="710" y="400" as="sourcePoint" />
            <mxPoint x="616" y="400" as="targetPoint" />
            <mxPoint as="offset" />
          </mxGeometry>
        </mxCell>
        <mxCell id="mMYuAVqFExLfhnSItoR9-2" value="" style="ellipse;whiteSpace=wrap;html=1;aspect=fixed;" parent="1" vertex="1">
          <mxGeometry x="590" y="385" width="25" height="25" as="geometry" />
        </mxCell>
        <mxCell id="mMYuAVqFExLfhnSItoR9-3" value="" style="endArrow=none;html=1;rounded=0;" parent="1" edge="1">
          <mxGeometry width="50" height="50" relative="1" as="geometry">
            <mxPoint x="570" y="397" as="sourcePoint" />
            <mxPoint x="590" y="397.12999999999994" as="targetPoint" />
          </mxGeometry>
        </mxCell>
        <mxCell id="mMYuAVqFExLfhnSItoR9-4" value="" style="endArrow=none;html=1;rounded=0;" parent="1" edge="1">
          <mxGeometry width="50" height="50" relative="1" as="geometry">
            <mxPoint x="570" y="410" as="sourcePoint" />
            <mxPoint x="570" y="377.5" as="targetPoint" />
          </mxGeometry>
        </mxCell>
        <mxCell id="mMYuAVqFExLfhnSItoR9-5" value="annoucement page" style="text;html=1;align=center;verticalAlign=middle;resizable=0;points=[];autosize=1;strokeColor=none;fillColor=none;" parent="1" vertex="1">
          <mxGeometry x="520" y="420" width="130" height="30" as="geometry" />
        </mxCell>
        <mxCell id="mMYuAVqFExLfhnSItoR9-6" value="" style="endArrow=none;dashed=1;html=1;rounded=0;entryX=0.413;entryY=1.004;entryDx=0;entryDy=0;entryPerimeter=0;" parent="1" target="t00iX7iIWRQzHZ8eNa69-3" edge="1">
          <mxGeometry width="50" height="50" relative="1" as="geometry">
            <mxPoint x="484" y="730" as="sourcePoint" />
            <mxPoint x="540" y="430" as="targetPoint" />
          </mxGeometry>
        </mxCell>
        <mxCell id="mMYuAVqFExLfhnSItoR9-7" value="" style="html=1;points=[];perimeter=orthogonalPerimeter;" parent="1" vertex="1">
          <mxGeometry x="570" y="480" width="10" height="210" as="geometry" />
        </mxCell>
        <mxCell id="mMYuAVqFExLfhnSItoR9-8" value="" style="endArrow=classic;html=1;rounded=0;" parent="1" source="mMYuAVqFExLfhnSItoR9-7" edge="1">
          <mxGeometry width="50" height="50" relative="1" as="geometry">
            <mxPoint x="490" y="570" as="sourcePoint" />
            <mxPoint x="210" y="480" as="targetPoint" />
          </mxGeometry>
        </mxCell>
        <mxCell id="mMYuAVqFExLfhnSItoR9-9" value="2. display()" style="text;html=1;align=center;verticalAlign=middle;resizable=0;points=[];autosize=1;strokeColor=none;fillColor=none;" parent="1" vertex="1">
          <mxGeometry x="340" y="455" width="80" height="30" as="geometry" />
        </mxCell>
        <mxCell id="mMYuAVqFExLfhnSItoR9-10" value="3. feedBack()" style="html=1;verticalAlign=bottom;endArrow=open;dashed=1;endSize=8;exitX=1.283;exitY=0.691;exitDx=0;exitDy=0;exitPerimeter=0;" parent="1" source="t00iX7iIWRQzHZ8eNa69-1" target="mMYuAVqFExLfhnSItoR9-7" edge="1">
          <mxGeometry x="0.0109" y="-2" relative="1" as="geometry">
            <mxPoint x="334" y="550" as="sourcePoint" />
            <mxPoint x="240" y="550" as="targetPoint" />
            <mxPoint as="offset" />
          </mxGeometry>
        </mxCell>
        <mxCell id="mMYuAVqFExLfhnSItoR9-11" value="5. feedBack()" style="html=1;verticalAlign=bottom;endArrow=open;dashed=1;endSize=8;exitX=1.283;exitY=0.691;exitDx=0;exitDy=0;exitPerimeter=0;" parent="1" edge="1">
          <mxGeometry x="0.0109" y="-2" relative="1" as="geometry">
            <mxPoint x="213" y="670" as="sourcePoint" />
            <mxPoint x="570" y="670" as="targetPoint" />
            <mxPoint as="offset" />
          </mxGeometry>
        </mxCell>
        <mxCell id="mMYuAVqFExLfhnSItoR9-15" value="" style="endArrow=classic;html=1;rounded=0;exitX=1.055;exitY=0.254;exitDx=0;exitDy=0;exitPerimeter=0;" parent="1" edge="1">
          <mxGeometry width="50" height="50" relative="1" as="geometry">
            <mxPoint x="580" y="521" as="sourcePoint" />
            <mxPoint x="710" y="520" as="targetPoint" />
          </mxGeometry>
        </mxCell>
        <mxCell id="mMYuAVqFExLfhnSItoR9-16" value="4. update()" style="text;html=1;align=center;verticalAlign=middle;resizable=0;points=[];autosize=1;strokeColor=none;fillColor=none;" parent="1" vertex="1">
          <mxGeometry x="600" y="495" width="80" height="30" as="geometry" />
        </mxCell>
        <mxCell id="mMYuAVqFExLfhnSItoR9-17" value="4.1 respone()" style="html=1;verticalAlign=bottom;endArrow=open;dashed=1;endSize=8;" parent="1" target="mMYuAVqFExLfhnSItoR9-7" edge="1">
          <mxGeometry x="0.0109" y="-2" relative="1" as="geometry">
            <mxPoint x="709" y="630" as="sourcePoint" />
            <mxPoint x="615" y="630" as="targetPoint" />
            <mxPoint as="offset" />
          </mxGeometry>
        </mxCell>
        <mxCell id="mMYuAVqFExLfhnSItoR9-18" value="" style="html=1;points=[];perimeter=orthogonalPerimeter;" parent="1" vertex="1">
          <mxGeometry x="880" y="190" width="10" height="522" as="geometry" />
        </mxCell>
        <mxCell id="mMYuAVqFExLfhnSItoR9-20" value="" style="endArrow=classic;html=1;rounded=0;exitX=1.055;exitY=0.254;exitDx=0;exitDy=0;exitPerimeter=0;" parent="1" edge="1">
          <mxGeometry width="50" height="50" relative="1" as="geometry">
            <mxPoint x="720" y="341" as="sourcePoint" />
            <mxPoint x="880" y="340" as="targetPoint" />
          </mxGeometry>
        </mxCell>
        <mxCell id="mMYuAVqFExLfhnSItoR9-21" value="1.1.1: sendRequest()" style="text;html=1;align=center;verticalAlign=middle;resizable=0;points=[];autosize=1;strokeColor=none;fillColor=none;" parent="1" vertex="1">
          <mxGeometry x="720" y="315" width="140" height="30" as="geometry" />
        </mxCell>
        <mxCell id="mMYuAVqFExLfhnSItoR9-22" value="1.1.2: feedBack()" style="html=1;verticalAlign=bottom;endArrow=open;dashed=1;endSize=8;" parent="1" target="a4RUO-VB6auh8plvOcPR-6" edge="1">
          <mxGeometry x="0.0109" y="-2" relative="1" as="geometry">
            <mxPoint x="880" y="469.57" as="sourcePoint" />
            <mxPoint x="786" y="469.57" as="targetPoint" />
            <mxPoint as="offset" />
          </mxGeometry>
        </mxCell>
        <mxCell id="mMYuAVqFExLfhnSItoR9-23" value="Receptionist" style="shape=umlActor;verticalLabelPosition=bottom;verticalAlign=top;html=1;outlineConnect=0;" parent="1" vertex="1">
          <mxGeometry x="870" y="100" width="30" height="60" as="geometry" />
        </mxCell>
        <mxCell id="mMYuAVqFExLfhnSItoR9-24" value="" style="endArrow=none;dashed=1;html=1;rounded=0;" parent="1" edge="1">
          <mxGeometry width="50" height="50" relative="1" as="geometry">
            <mxPoint x="575" y="730" as="sourcePoint" />
            <mxPoint x="575" y="690" as="targetPoint" />
          </mxGeometry>
        </mxCell>
        <mxCell id="mMYuAVqFExLfhnSItoR9-25" value="" style="endArrow=none;dashed=1;html=1;rounded=0;" parent="1" edge="1">
          <mxGeometry width="50" height="50" relative="1" as="geometry">
            <mxPoint x="715" y="730" as="sourcePoint" />
            <mxPoint x="714.5699999999999" y="670" as="targetPoint" />
          </mxGeometry>
        </mxCell>
        <mxCell id="mMYuAVqFExLfhnSItoR9-26" value="" style="endArrow=none;dashed=1;html=1;rounded=0;" parent="1" edge="1">
          <mxGeometry width="50" height="50" relative="1" as="geometry">
            <mxPoint x="715" y="285" as="sourcePoint" />
            <mxPoint x="715" y="180" as="targetPoint" />
          </mxGeometry>
        </mxCell>
        <mxCell id="mMYuAVqFExLfhnSItoR9-28" value="" style="endArrow=classic;html=1;rounded=0;" parent="1" source="mMYuAVqFExLfhnSItoR9-27" edge="1">
          <mxGeometry width="50" height="50" relative="1" as="geometry">
            <mxPoint x="730" y="130" as="sourcePoint" />
            <mxPoint x="720" y="130" as="targetPoint" />
            <Array as="points">
              <mxPoint x="720" y="130" />
            </Array>
          </mxGeometry>
        </mxCell>
        <mxCell id="CNOOX23w8QP2mofObG02-1" value="system" style="text;html=1;align=center;verticalAlign=middle;resizable=0;points=[];autosize=1;strokeColor=none;fillColor=none;" parent="1" vertex="1">
          <mxGeometry x="685" y="150" width="60" height="30" as="geometry" />
        </mxCell>
        <mxCell id="CNOOX23w8QP2mofObG02-2" value="" style="endArrow=classic;html=1;rounded=0;" parent="1" target="mMYuAVqFExLfhnSItoR9-27" edge="1">
          <mxGeometry width="50" height="50" relative="1" as="geometry">
            <mxPoint x="730" y="130" as="sourcePoint" />
            <mxPoint x="720" y="130" as="targetPoint" />
            <Array as="points" />
          </mxGeometry>
        </mxCell>
        <mxCell id="mMYuAVqFExLfhnSItoR9-27" value="" style="ellipse;whiteSpace=wrap;html=1;aspect=fixed;" parent="1" vertex="1">
          <mxGeometry x="690" y="100" width="50" height="50" as="geometry" />
        </mxCell>
      </root>
    </mxGraphModel>
  </diagram>
  <diagram name="2_seeGuestInfo" id="iJjWojP-vAZc7gE3RuNG">
    <mxGraphModel dx="1290" dy="669" grid="1" gridSize="10" guides="1" tooltips="1" connect="1" arrows="1" fold="1" page="1" pageScale="1" pageWidth="1100" pageHeight="1700" math="0" shadow="0">
      <root>
        <mxCell id="BzWGdewWHIrrosF_6lqv-0" />
        <mxCell id="BzWGdewWHIrrosF_6lqv-1" parent="BzWGdewWHIrrosF_6lqv-0" />
        <mxCell id="BzWGdewWHIrrosF_6lqv-3" value="" style="html=1;points=[];perimeter=orthogonalPerimeter;" parent="BzWGdewWHIrrosF_6lqv-1" vertex="1">
          <mxGeometry x="200" y="190" width="10" height="400" as="geometry" />
        </mxCell>
        <mxCell id="BzWGdewWHIrrosF_6lqv-4" value="" style="html=1;points=[];perimeter=orthogonalPerimeter;" parent="BzWGdewWHIrrosF_6lqv-1" vertex="1">
          <mxGeometry x="480" y="250" width="10" height="160" as="geometry" />
        </mxCell>
        <mxCell id="BzWGdewWHIrrosF_6lqv-5" value="" style="endArrow=classic;html=1;rounded=0;exitX=1.12;exitY=0.162;exitDx=0;exitDy=0;exitPerimeter=0;" parent="BzWGdewWHIrrosF_6lqv-1" source="BzWGdewWHIrrosF_6lqv-3" target="BzWGdewWHIrrosF_6lqv-4" edge="1">
          <mxGeometry width="50" height="50" relative="1" as="geometry">
            <mxPoint x="500" y="530" as="sourcePoint" />
            <mxPoint x="550" y="480" as="targetPoint" />
          </mxGeometry>
        </mxCell>
        <mxCell id="BzWGdewWHIrrosF_6lqv-6" value="1. click()" style="text;html=1;align=center;verticalAlign=middle;resizable=0;points=[];autosize=1;strokeColor=none;fillColor=none;" parent="BzWGdewWHIrrosF_6lqv-1" vertex="1">
          <mxGeometry x="315" y="225" width="70" height="30" as="geometry" />
        </mxCell>
        <mxCell id="BzWGdewWHIrrosF_6lqv-7" value="" style="endArrow=none;dashed=1;html=1;rounded=0;" parent="BzWGdewWHIrrosF_6lqv-1" edge="1">
          <mxGeometry width="50" height="50" relative="1" as="geometry">
            <mxPoint x="484.57000000000005" y="250" as="sourcePoint" />
            <mxPoint x="484.57000000000005" y="180" as="targetPoint" />
          </mxGeometry>
        </mxCell>
        <mxCell id="BzWGdewWHIrrosF_6lqv-8" value="" style="ellipse;whiteSpace=wrap;html=1;aspect=fixed;" parent="BzWGdewWHIrrosF_6lqv-1" vertex="1">
          <mxGeometry x="460" y="100" width="50" height="50" as="geometry" />
        </mxCell>
        <mxCell id="BzWGdewWHIrrosF_6lqv-9" value="" style="endArrow=none;html=1;rounded=0;" parent="BzWGdewWHIrrosF_6lqv-1" edge="1">
          <mxGeometry width="50" height="50" relative="1" as="geometry">
            <mxPoint x="400" y="130" as="sourcePoint" />
            <mxPoint x="460" y="129.41" as="targetPoint" />
          </mxGeometry>
        </mxCell>
        <mxCell id="BzWGdewWHIrrosF_6lqv-10" value="" style="endArrow=none;html=1;rounded=0;" parent="BzWGdewWHIrrosF_6lqv-1" edge="1">
          <mxGeometry width="50" height="50" relative="1" as="geometry">
            <mxPoint x="400" y="155" as="sourcePoint" />
            <mxPoint x="400" y="95" as="targetPoint" />
          </mxGeometry>
        </mxCell>
        <mxCell id="BzWGdewWHIrrosF_6lqv-11" value="Show guest information button" style="text;html=1;align=center;verticalAlign=middle;resizable=0;points=[];autosize=1;strokeColor=none;fillColor=none;" parent="BzWGdewWHIrrosF_6lqv-1" vertex="1">
          <mxGeometry x="385" y="150" width="190" height="30" as="geometry" />
        </mxCell>
        <mxCell id="BzWGdewWHIrrosF_6lqv-12" value="" style="html=1;points=[];perimeter=orthogonalPerimeter;" parent="BzWGdewWHIrrosF_6lqv-1" vertex="1">
          <mxGeometry x="710" y="290" width="10" height="150" as="geometry" />
        </mxCell>
        <mxCell id="BzWGdewWHIrrosF_6lqv-13" value="" style="endArrow=classic;html=1;rounded=0;exitX=1.055;exitY=0.254;exitDx=0;exitDy=0;exitPerimeter=0;entryX=0.566;entryY=0;entryDx=0;entryDy=0;entryPerimeter=0;" parent="BzWGdewWHIrrosF_6lqv-1" source="BzWGdewWHIrrosF_6lqv-4" target="BzWGdewWHIrrosF_6lqv-12" edge="1">
          <mxGeometry width="50" height="50" relative="1" as="geometry">
            <mxPoint x="610" y="370" as="sourcePoint" />
            <mxPoint x="660" y="320" as="targetPoint" />
          </mxGeometry>
        </mxCell>
        <mxCell id="BzWGdewWHIrrosF_6lqv-14" value="1.1 CreateRequest()" style="text;html=1;align=center;verticalAlign=middle;resizable=0;points=[];autosize=1;strokeColor=none;fillColor=none;" parent="BzWGdewWHIrrosF_6lqv-1" vertex="1">
          <mxGeometry x="540" y="260" width="130" height="30" as="geometry" />
        </mxCell>
        <mxCell id="BzWGdewWHIrrosF_6lqv-15" value="1.1.1 create()" style="html=1;verticalAlign=bottom;endArrow=open;dashed=1;endSize=8;" parent="BzWGdewWHIrrosF_6lqv-1" edge="1">
          <mxGeometry x="0.0109" y="-2" relative="1" as="geometry">
            <mxPoint x="710" y="400" as="sourcePoint" />
            <mxPoint x="616" y="400" as="targetPoint" />
            <mxPoint as="offset" />
          </mxGeometry>
        </mxCell>
        <mxCell id="BzWGdewWHIrrosF_6lqv-16" value="" style="ellipse;whiteSpace=wrap;html=1;aspect=fixed;" parent="BzWGdewWHIrrosF_6lqv-1" vertex="1">
          <mxGeometry x="590" y="385" width="25" height="25" as="geometry" />
        </mxCell>
        <mxCell id="BzWGdewWHIrrosF_6lqv-17" value="" style="endArrow=none;html=1;rounded=0;" parent="BzWGdewWHIrrosF_6lqv-1" edge="1">
          <mxGeometry width="50" height="50" relative="1" as="geometry">
            <mxPoint x="570" y="397" as="sourcePoint" />
            <mxPoint x="590" y="397.12999999999994" as="targetPoint" />
          </mxGeometry>
        </mxCell>
        <mxCell id="BzWGdewWHIrrosF_6lqv-18" value="" style="endArrow=none;html=1;rounded=0;" parent="BzWGdewWHIrrosF_6lqv-1" edge="1">
          <mxGeometry width="50" height="50" relative="1" as="geometry">
            <mxPoint x="570" y="410" as="sourcePoint" />
            <mxPoint x="570" y="377.5" as="targetPoint" />
          </mxGeometry>
        </mxCell>
        <mxCell id="BzWGdewWHIrrosF_6lqv-19" value="list of guest page" style="text;html=1;align=center;verticalAlign=middle;resizable=0;points=[];autosize=1;strokeColor=none;fillColor=none;" parent="BzWGdewWHIrrosF_6lqv-1" vertex="1">
          <mxGeometry x="530" y="420" width="110" height="30" as="geometry" />
        </mxCell>
        <mxCell id="BzWGdewWHIrrosF_6lqv-20" value="" style="endArrow=none;dashed=1;html=1;rounded=0;entryX=0.413;entryY=1.004;entryDx=0;entryDy=0;entryPerimeter=0;" parent="BzWGdewWHIrrosF_6lqv-1" target="BzWGdewWHIrrosF_6lqv-4" edge="1">
          <mxGeometry width="50" height="50" relative="1" as="geometry">
            <mxPoint x="484" y="590" as="sourcePoint" />
            <mxPoint x="540" y="430" as="targetPoint" />
          </mxGeometry>
        </mxCell>
        <mxCell id="BzWGdewWHIrrosF_6lqv-21" value="" style="html=1;points=[];perimeter=orthogonalPerimeter;" parent="BzWGdewWHIrrosF_6lqv-1" vertex="1">
          <mxGeometry x="570" y="480" width="10" height="70" as="geometry" />
        </mxCell>
        <mxCell id="BzWGdewWHIrrosF_6lqv-22" value="" style="endArrow=classic;html=1;rounded=0;" parent="BzWGdewWHIrrosF_6lqv-1" source="BzWGdewWHIrrosF_6lqv-21" edge="1">
          <mxGeometry width="50" height="50" relative="1" as="geometry">
            <mxPoint x="490" y="570" as="sourcePoint" />
            <mxPoint x="210" y="480" as="targetPoint" />
          </mxGeometry>
        </mxCell>
        <mxCell id="BzWGdewWHIrrosF_6lqv-23" value="2. display()" style="text;html=1;align=center;verticalAlign=middle;resizable=0;points=[];autosize=1;strokeColor=none;fillColor=none;" parent="BzWGdewWHIrrosF_6lqv-1" vertex="1">
          <mxGeometry x="340" y="455" width="80" height="30" as="geometry" />
        </mxCell>
        <mxCell id="BzWGdewWHIrrosF_6lqv-33" value="Receptionist" style="shape=umlActor;verticalLabelPosition=bottom;verticalAlign=top;html=1;outlineConnect=0;" parent="BzWGdewWHIrrosF_6lqv-1" vertex="1">
          <mxGeometry x="190" y="100" width="30" height="60" as="geometry" />
        </mxCell>
        <mxCell id="BzWGdewWHIrrosF_6lqv-36" value="" style="endArrow=none;dashed=1;html=1;rounded=0;" parent="BzWGdewWHIrrosF_6lqv-1" edge="1">
          <mxGeometry width="50" height="50" relative="1" as="geometry">
            <mxPoint x="715" y="285" as="sourcePoint" />
            <mxPoint x="715" y="180" as="targetPoint" />
          </mxGeometry>
        </mxCell>
        <mxCell id="BzWGdewWHIrrosF_6lqv-37" value="" style="ellipse;whiteSpace=wrap;html=1;aspect=fixed;" parent="BzWGdewWHIrrosF_6lqv-1" vertex="1">
          <mxGeometry x="690" y="100" width="50" height="50" as="geometry" />
        </mxCell>
        <mxCell id="BzWGdewWHIrrosF_6lqv-38" value="" style="endArrow=classic;html=1;rounded=0;" parent="BzWGdewWHIrrosF_6lqv-1" edge="1">
          <mxGeometry width="50" height="50" relative="1" as="geometry">
            <mxPoint x="730" y="100" as="sourcePoint" />
            <mxPoint x="720" y="100" as="targetPoint" />
            <Array as="points">
              <mxPoint x="720" y="100" />
            </Array>
          </mxGeometry>
        </mxCell>
        <mxCell id="7Aw_tgjF8V1djeBLqByE-0" value="system" style="text;html=1;align=center;verticalAlign=middle;resizable=0;points=[];autosize=1;strokeColor=none;fillColor=none;" parent="BzWGdewWHIrrosF_6lqv-1" vertex="1">
          <mxGeometry x="685" y="150" width="60" height="30" as="geometry" />
        </mxCell>
        <mxCell id="7Aw_tgjF8V1djeBLqByE-3" value="" style="endArrow=none;dashed=1;html=1;rounded=0;" parent="BzWGdewWHIrrosF_6lqv-1" edge="1">
          <mxGeometry width="50" height="50" relative="1" as="geometry">
            <mxPoint x="575" y="590" as="sourcePoint" />
            <mxPoint x="575" y="550" as="targetPoint" />
          </mxGeometry>
        </mxCell>
        <mxCell id="7Aw_tgjF8V1djeBLqByE-5" value="" style="endArrow=none;dashed=1;html=1;rounded=0;entryX=0.6;entryY=-0.049;entryDx=0;entryDy=0;entryPerimeter=0;exitX=0.418;exitY=1.007;exitDx=0;exitDy=0;exitPerimeter=0;" parent="BzWGdewWHIrrosF_6lqv-1" source="BzWGdewWHIrrosF_6lqv-19" target="BzWGdewWHIrrosF_6lqv-21" edge="1">
          <mxGeometry width="50" height="50" relative="1" as="geometry">
            <mxPoint x="576" y="460" as="sourcePoint" />
            <mxPoint x="585" y="560" as="targetPoint" />
            <Array as="points">
              <mxPoint x="576" y="480" />
            </Array>
          </mxGeometry>
        </mxCell>
        <mxCell id="7Aw_tgjF8V1djeBLqByE-6" value="" style="endArrow=none;dashed=1;html=1;rounded=0;entryX=0.413;entryY=1.004;entryDx=0;entryDy=0;entryPerimeter=0;" parent="BzWGdewWHIrrosF_6lqv-1" edge="1">
          <mxGeometry width="50" height="50" relative="1" as="geometry">
            <mxPoint x="715" y="590" as="sourcePoint" />
            <mxPoint x="714.5" y="440" as="targetPoint" />
          </mxGeometry>
        </mxCell>
      </root>
    </mxGraphModel>
  </diagram>
  <diagram name="3.CheckDailyTask" id="QqXMQnuQGt26zzHS1cM6">
    <mxGraphModel dx="1290" dy="669" grid="1" gridSize="10" guides="1" tooltips="1" connect="1" arrows="1" fold="1" page="1" pageScale="1" pageWidth="1100" pageHeight="1700" math="0" shadow="0">
      <root>
        <mxCell id="NXE8T5_NUdizGPsd4FqQ-0" />
        <mxCell id="NXE8T5_NUdizGPsd4FqQ-1" parent="NXE8T5_NUdizGPsd4FqQ-0" />
        <mxCell id="NXE8T5_NUdizGPsd4FqQ-2" value="" style="html=1;points=[];perimeter=orthogonalPerimeter;" parent="NXE8T5_NUdizGPsd4FqQ-1" vertex="1">
          <mxGeometry x="200" y="190" width="10" height="400" as="geometry" />
        </mxCell>
        <mxCell id="NXE8T5_NUdizGPsd4FqQ-3" value="" style="html=1;points=[];perimeter=orthogonalPerimeter;" parent="NXE8T5_NUdizGPsd4FqQ-1" vertex="1">
          <mxGeometry x="400" y="250" width="10" height="310" as="geometry" />
        </mxCell>
        <mxCell id="NXE8T5_NUdizGPsd4FqQ-4" value="" style="endArrow=classic;html=1;rounded=0;exitX=1.12;exitY=0.162;exitDx=0;exitDy=0;exitPerimeter=0;" parent="NXE8T5_NUdizGPsd4FqQ-1" source="NXE8T5_NUdizGPsd4FqQ-2" target="NXE8T5_NUdizGPsd4FqQ-3" edge="1">
          <mxGeometry width="50" height="50" relative="1" as="geometry">
            <mxPoint x="500" y="530" as="sourcePoint" />
            <mxPoint x="550" y="480" as="targetPoint" />
          </mxGeometry>
        </mxCell>
        <mxCell id="NXE8T5_NUdizGPsd4FqQ-5" value="1. press()" style="text;html=1;align=center;verticalAlign=middle;resizable=0;points=[];autosize=1;strokeColor=none;fillColor=none;" parent="NXE8T5_NUdizGPsd4FqQ-1" vertex="1">
          <mxGeometry x="270" y="220" width="70" height="30" as="geometry" />
        </mxCell>
        <mxCell id="NXE8T5_NUdizGPsd4FqQ-6" value="" style="endArrow=none;dashed=1;html=1;rounded=0;" parent="NXE8T5_NUdizGPsd4FqQ-1" edge="1">
          <mxGeometry width="50" height="50" relative="1" as="geometry">
            <mxPoint x="404.50000000000006" y="250" as="sourcePoint" />
            <mxPoint x="404.50000000000006" y="180" as="targetPoint" />
          </mxGeometry>
        </mxCell>
        <mxCell id="NXE8T5_NUdizGPsd4FqQ-7" value="" style="ellipse;whiteSpace=wrap;html=1;aspect=fixed;" parent="NXE8T5_NUdizGPsd4FqQ-1" vertex="1">
          <mxGeometry x="380" y="100" width="50" height="50" as="geometry" />
        </mxCell>
        <mxCell id="NXE8T5_NUdizGPsd4FqQ-8" value="" style="endArrow=none;html=1;rounded=0;" parent="NXE8T5_NUdizGPsd4FqQ-1" edge="1">
          <mxGeometry width="50" height="50" relative="1" as="geometry">
            <mxPoint x="325" y="124.71" as="sourcePoint" />
            <mxPoint x="380" y="124.71" as="targetPoint" />
          </mxGeometry>
        </mxCell>
        <mxCell id="NXE8T5_NUdizGPsd4FqQ-9" value="" style="endArrow=none;html=1;rounded=0;exitX=0.081;exitY=-0.046;exitDx=0;exitDy=0;exitPerimeter=0;" parent="NXE8T5_NUdizGPsd4FqQ-1" source="NXE8T5_NUdizGPsd4FqQ-10" edge="1">
          <mxGeometry width="50" height="50" relative="1" as="geometry">
            <mxPoint x="325" y="155" as="sourcePoint" />
            <mxPoint x="325" y="95" as="targetPoint" />
          </mxGeometry>
        </mxCell>
        <mxCell id="NXE8T5_NUdizGPsd4FqQ-10" value="Show guest information button" style="text;html=1;align=center;verticalAlign=middle;resizable=0;points=[];autosize=1;strokeColor=none;fillColor=none;" parent="NXE8T5_NUdizGPsd4FqQ-1" vertex="1">
          <mxGeometry x="310" y="150" width="190" height="30" as="geometry" />
        </mxCell>
        <mxCell id="NXE8T5_NUdizGPsd4FqQ-11" value="" style="html=1;points=[];perimeter=orthogonalPerimeter;" parent="NXE8T5_NUdizGPsd4FqQ-1" vertex="1">
          <mxGeometry x="550" y="290" width="10" height="250" as="geometry" />
        </mxCell>
        <mxCell id="NXE8T5_NUdizGPsd4FqQ-12" value="" style="endArrow=classic;html=1;rounded=0;exitX=1;exitY=0.128;exitDx=0;exitDy=0;exitPerimeter=0;entryX=0.566;entryY=0;entryDx=0;entryDy=0;entryPerimeter=0;" parent="NXE8T5_NUdizGPsd4FqQ-1" source="NXE8T5_NUdizGPsd4FqQ-3" target="NXE8T5_NUdizGPsd4FqQ-11" edge="1">
          <mxGeometry width="50" height="50" relative="1" as="geometry">
            <mxPoint x="610" y="370" as="sourcePoint" />
            <mxPoint x="660" y="320" as="targetPoint" />
          </mxGeometry>
        </mxCell>
        <mxCell id="NXE8T5_NUdizGPsd4FqQ-13" value="1.1 requestList()" style="text;html=1;align=center;verticalAlign=middle;resizable=0;points=[];autosize=1;strokeColor=none;fillColor=none;" parent="NXE8T5_NUdizGPsd4FqQ-1" vertex="1">
          <mxGeometry x="430" y="260" width="110" height="30" as="geometry" />
        </mxCell>
        <mxCell id="NXE8T5_NUdizGPsd4FqQ-23" value="Employee" style="shape=umlActor;verticalLabelPosition=bottom;verticalAlign=top;html=1;outlineConnect=0;" parent="NXE8T5_NUdizGPsd4FqQ-1" vertex="1">
          <mxGeometry x="190" y="100" width="30" height="60" as="geometry" />
        </mxCell>
        <mxCell id="NXE8T5_NUdizGPsd4FqQ-24" value="" style="endArrow=none;dashed=1;html=1;rounded=0;" parent="NXE8T5_NUdizGPsd4FqQ-1" edge="1">
          <mxGeometry width="50" height="50" relative="1" as="geometry">
            <mxPoint x="554.66" y="290" as="sourcePoint" />
            <mxPoint x="554.66" y="185" as="targetPoint" />
          </mxGeometry>
        </mxCell>
        <mxCell id="NXE8T5_NUdizGPsd4FqQ-25" value="" style="ellipse;whiteSpace=wrap;html=1;aspect=fixed;" parent="NXE8T5_NUdizGPsd4FqQ-1" vertex="1">
          <mxGeometry x="530" y="100" width="50" height="50" as="geometry" />
        </mxCell>
        <mxCell id="NXE8T5_NUdizGPsd4FqQ-26" value="" style="endArrow=classic;html=1;rounded=0;" parent="NXE8T5_NUdizGPsd4FqQ-1" edge="1">
          <mxGeometry width="50" height="50" relative="1" as="geometry">
            <mxPoint x="730" y="100" as="sourcePoint" />
            <mxPoint x="720" y="100" as="targetPoint" />
            <Array as="points">
              <mxPoint x="720" y="100" />
            </Array>
          </mxGeometry>
        </mxCell>
        <mxCell id="NXE8T5_NUdizGPsd4FqQ-27" value="system" style="text;html=1;align=center;verticalAlign=middle;resizable=0;points=[];autosize=1;strokeColor=none;fillColor=none;" parent="NXE8T5_NUdizGPsd4FqQ-1" vertex="1">
          <mxGeometry x="525" y="150" width="60" height="30" as="geometry" />
        </mxCell>
        <mxCell id="fLKLJ9md2LqI_tII5q9L-0" value="" style="ellipse;whiteSpace=wrap;html=1;aspect=fixed;" parent="NXE8T5_NUdizGPsd4FqQ-1" vertex="1">
          <mxGeometry x="805" y="275" width="50" height="50" as="geometry" />
        </mxCell>
        <mxCell id="fLKLJ9md2LqI_tII5q9L-1" value="" style="endArrow=none;html=1;rounded=0;" parent="NXE8T5_NUdizGPsd4FqQ-1" edge="1">
          <mxGeometry width="50" height="50" relative="1" as="geometry">
            <mxPoint x="750" y="299.71" as="sourcePoint" />
            <mxPoint x="805" y="299.71" as="targetPoint" />
          </mxGeometry>
        </mxCell>
        <mxCell id="fLKLJ9md2LqI_tII5q9L-2" value="" style="endArrow=none;html=1;rounded=0;exitX=0.081;exitY=-0.046;exitDx=0;exitDy=0;exitPerimeter=0;" parent="NXE8T5_NUdizGPsd4FqQ-1" edge="1">
          <mxGeometry width="50" height="50" relative="1" as="geometry">
            <mxPoint x="750" y="324" as="sourcePoint" />
            <mxPoint x="750" y="270" as="targetPoint" />
          </mxGeometry>
        </mxCell>
        <mxCell id="rVRZP_N9F2naFWZHwCS--0" value="1.1.1 create()" style="html=1;verticalAlign=bottom;endArrow=open;dashed=1;endSize=8;" parent="NXE8T5_NUdizGPsd4FqQ-1" edge="1">
          <mxGeometry x="0.0109" y="-2" relative="1" as="geometry">
            <mxPoint x="560" y="320" as="sourcePoint" />
            <mxPoint x="750" y="320" as="targetPoint" />
            <mxPoint as="offset" />
          </mxGeometry>
        </mxCell>
        <mxCell id="rVRZP_N9F2naFWZHwCS--1" value="Daily Task List" style="text;html=1;align=center;verticalAlign=middle;resizable=0;points=[];autosize=1;strokeColor=none;fillColor=none;" parent="NXE8T5_NUdizGPsd4FqQ-1" vertex="1">
          <mxGeometry x="760" y="325" width="100" height="30" as="geometry" />
        </mxCell>
        <mxCell id="rVRZP_N9F2naFWZHwCS--2" value="" style="endArrow=none;dashed=1;html=1;rounded=0;" parent="NXE8T5_NUdizGPsd4FqQ-1" edge="1">
          <mxGeometry width="50" height="50" relative="1" as="geometry">
            <mxPoint x="404.65999999999997" y="600" as="sourcePoint" />
            <mxPoint x="404.65999999999997" y="560" as="targetPoint" />
          </mxGeometry>
        </mxCell>
        <mxCell id="rVRZP_N9F2naFWZHwCS--3" value="" style="endArrow=none;dashed=1;html=1;rounded=0;" parent="NXE8T5_NUdizGPsd4FqQ-1" edge="1">
          <mxGeometry width="50" height="50" relative="1" as="geometry">
            <mxPoint x="555" y="600" as="sourcePoint" />
            <mxPoint x="554.66" y="540" as="targetPoint" />
          </mxGeometry>
        </mxCell>
        <mxCell id="rVRZP_N9F2naFWZHwCS--4" value="" style="html=1;points=[];perimeter=orthogonalPerimeter;" parent="NXE8T5_NUdizGPsd4FqQ-1" vertex="1">
          <mxGeometry x="805" y="377.5" width="10" height="25" as="geometry" />
        </mxCell>
        <mxCell id="rVRZP_N9F2naFWZHwCS--5" value="" style="endArrow=none;dashed=1;html=1;rounded=0;" parent="NXE8T5_NUdizGPsd4FqQ-1" edge="1">
          <mxGeometry width="50" height="50" relative="1" as="geometry">
            <mxPoint x="809.66" y="602.5" as="sourcePoint" />
            <mxPoint x="809.66" y="402.5" as="targetPoint" />
          </mxGeometry>
        </mxCell>
        <mxCell id="rVRZP_N9F2naFWZHwCS--6" value="" style="endArrow=none;dashed=1;html=1;rounded=0;exitX=0.61;exitY=0.013;exitDx=0;exitDy=0;exitPerimeter=0;" parent="NXE8T5_NUdizGPsd4FqQ-1" target="rVRZP_N9F2naFWZHwCS--1" edge="1">
          <mxGeometry width="50" height="50" relative="1" as="geometry">
            <mxPoint x="809.0999999999999" y="377.82500000000005" as="sourcePoint" />
            <mxPoint x="809" y="360" as="targetPoint" />
          </mxGeometry>
        </mxCell>
        <mxCell id="rVRZP_N9F2naFWZHwCS--7" value="" style="endArrow=classic;html=1;rounded=0;exitX=0.114;exitY=0.477;exitDx=0;exitDy=0;exitPerimeter=0;entryX=1.083;entryY=0.496;entryDx=0;entryDy=0;entryPerimeter=0;" parent="NXE8T5_NUdizGPsd4FqQ-1" source="rVRZP_N9F2naFWZHwCS--4" target="NXE8T5_NUdizGPsd4FqQ-2" edge="1">
          <mxGeometry width="50" height="50" relative="1" as="geometry">
            <mxPoint x="420" y="300" as="sourcePoint" />
            <mxPoint x="566" y="300" as="targetPoint" />
          </mxGeometry>
        </mxCell>
        <mxCell id="rVRZP_N9F2naFWZHwCS--8" value="2. Display()" style="text;html=1;align=center;verticalAlign=middle;resizable=0;points=[];autosize=1;strokeColor=none;fillColor=none;" parent="NXE8T5_NUdizGPsd4FqQ-1" vertex="1">
          <mxGeometry x="440" y="365" width="80" height="30" as="geometry" />
        </mxCell>
      </root>
    </mxGraphModel>
  </diagram>
  <diagram name="4_CheckTheEvent" id="lt7DF04mWxoto9YiasYm">
    <mxGraphModel dx="1290" dy="669" grid="1" gridSize="10" guides="1" tooltips="1" connect="1" arrows="1" fold="1" page="1" pageScale="1" pageWidth="1100" pageHeight="1700" math="0" shadow="0">
      <root>
        <mxCell id="K-APa02A3dyl_sZXUiLP-0" />
        <mxCell id="K-APa02A3dyl_sZXUiLP-1" parent="K-APa02A3dyl_sZXUiLP-0" />
        <mxCell id="K-APa02A3dyl_sZXUiLP-2" value="" style="html=1;points=[];perimeter=orthogonalPerimeter;" parent="K-APa02A3dyl_sZXUiLP-1" vertex="1">
          <mxGeometry x="200" y="190" width="10" height="400" as="geometry" />
        </mxCell>
        <mxCell id="K-APa02A3dyl_sZXUiLP-3" value="" style="html=1;points=[];perimeter=orthogonalPerimeter;" parent="K-APa02A3dyl_sZXUiLP-1" vertex="1">
          <mxGeometry x="480" y="250" width="10" height="160" as="geometry" />
        </mxCell>
        <mxCell id="K-APa02A3dyl_sZXUiLP-4" value="" style="endArrow=classic;html=1;rounded=0;exitX=1.12;exitY=0.162;exitDx=0;exitDy=0;exitPerimeter=0;" parent="K-APa02A3dyl_sZXUiLP-1" source="K-APa02A3dyl_sZXUiLP-2" target="K-APa02A3dyl_sZXUiLP-3" edge="1">
          <mxGeometry width="50" height="50" relative="1" as="geometry">
            <mxPoint x="500" y="530" as="sourcePoint" />
            <mxPoint x="550" y="480" as="targetPoint" />
          </mxGeometry>
        </mxCell>
        <mxCell id="K-APa02A3dyl_sZXUiLP-5" value="1. click()" style="text;html=1;align=center;verticalAlign=middle;resizable=0;points=[];autosize=1;strokeColor=none;fillColor=none;" parent="K-APa02A3dyl_sZXUiLP-1" vertex="1">
          <mxGeometry x="315" y="225" width="70" height="30" as="geometry" />
        </mxCell>
        <mxCell id="K-APa02A3dyl_sZXUiLP-6" value="" style="endArrow=none;dashed=1;html=1;rounded=0;" parent="K-APa02A3dyl_sZXUiLP-1" edge="1">
          <mxGeometry width="50" height="50" relative="1" as="geometry">
            <mxPoint x="484.57000000000005" y="250" as="sourcePoint" />
            <mxPoint x="484.57000000000005" y="180" as="targetPoint" />
          </mxGeometry>
        </mxCell>
        <mxCell id="K-APa02A3dyl_sZXUiLP-7" value="" style="ellipse;whiteSpace=wrap;html=1;aspect=fixed;" parent="K-APa02A3dyl_sZXUiLP-1" vertex="1">
          <mxGeometry x="460" y="100" width="50" height="50" as="geometry" />
        </mxCell>
        <mxCell id="K-APa02A3dyl_sZXUiLP-8" value="" style="endArrow=none;html=1;rounded=0;" parent="K-APa02A3dyl_sZXUiLP-1" edge="1">
          <mxGeometry width="50" height="50" relative="1" as="geometry">
            <mxPoint x="400" y="130" as="sourcePoint" />
            <mxPoint x="460" y="129.41" as="targetPoint" />
          </mxGeometry>
        </mxCell>
        <mxCell id="K-APa02A3dyl_sZXUiLP-9" value="" style="endArrow=none;html=1;rounded=0;" parent="K-APa02A3dyl_sZXUiLP-1" edge="1">
          <mxGeometry width="50" height="50" relative="1" as="geometry">
            <mxPoint x="400" y="155" as="sourcePoint" />
            <mxPoint x="400" y="95" as="targetPoint" />
          </mxGeometry>
        </mxCell>
        <mxCell id="K-APa02A3dyl_sZXUiLP-10" value="Show events button" style="text;html=1;align=center;verticalAlign=middle;resizable=0;points=[];autosize=1;strokeColor=none;fillColor=none;" parent="K-APa02A3dyl_sZXUiLP-1" vertex="1">
          <mxGeometry x="415" y="150" width="130" height="30" as="geometry" />
        </mxCell>
        <mxCell id="K-APa02A3dyl_sZXUiLP-11" value="" style="html=1;points=[];perimeter=orthogonalPerimeter;" parent="K-APa02A3dyl_sZXUiLP-1" vertex="1">
          <mxGeometry x="710" y="290" width="10" height="150" as="geometry" />
        </mxCell>
        <mxCell id="K-APa02A3dyl_sZXUiLP-12" value="" style="endArrow=classic;html=1;rounded=0;exitX=1.055;exitY=0.254;exitDx=0;exitDy=0;exitPerimeter=0;entryX=0.566;entryY=0;entryDx=0;entryDy=0;entryPerimeter=0;" parent="K-APa02A3dyl_sZXUiLP-1" source="K-APa02A3dyl_sZXUiLP-3" target="K-APa02A3dyl_sZXUiLP-11" edge="1">
          <mxGeometry width="50" height="50" relative="1" as="geometry">
            <mxPoint x="610" y="370" as="sourcePoint" />
            <mxPoint x="660" y="320" as="targetPoint" />
          </mxGeometry>
        </mxCell>
        <mxCell id="K-APa02A3dyl_sZXUiLP-13" value="1.1 CreateRequest()" style="text;html=1;align=center;verticalAlign=middle;resizable=0;points=[];autosize=1;strokeColor=none;fillColor=none;" parent="K-APa02A3dyl_sZXUiLP-1" vertex="1">
          <mxGeometry x="540" y="260" width="130" height="30" as="geometry" />
        </mxCell>
        <mxCell id="K-APa02A3dyl_sZXUiLP-14" value="1.1.1 create()" style="html=1;verticalAlign=bottom;endArrow=open;dashed=1;endSize=8;" parent="K-APa02A3dyl_sZXUiLP-1" edge="1">
          <mxGeometry x="0.0109" y="-2" relative="1" as="geometry">
            <mxPoint x="710" y="400" as="sourcePoint" />
            <mxPoint x="616" y="400" as="targetPoint" />
            <mxPoint as="offset" />
          </mxGeometry>
        </mxCell>
        <mxCell id="K-APa02A3dyl_sZXUiLP-15" value="" style="ellipse;whiteSpace=wrap;html=1;aspect=fixed;" parent="K-APa02A3dyl_sZXUiLP-1" vertex="1">
          <mxGeometry x="590" y="385" width="25" height="25" as="geometry" />
        </mxCell>
        <mxCell id="K-APa02A3dyl_sZXUiLP-16" value="" style="endArrow=none;html=1;rounded=0;" parent="K-APa02A3dyl_sZXUiLP-1" edge="1">
          <mxGeometry width="50" height="50" relative="1" as="geometry">
            <mxPoint x="570" y="397" as="sourcePoint" />
            <mxPoint x="590" y="397.12999999999994" as="targetPoint" />
          </mxGeometry>
        </mxCell>
        <mxCell id="K-APa02A3dyl_sZXUiLP-17" value="" style="endArrow=none;html=1;rounded=0;" parent="K-APa02A3dyl_sZXUiLP-1" edge="1">
          <mxGeometry width="50" height="50" relative="1" as="geometry">
            <mxPoint x="570" y="410" as="sourcePoint" />
            <mxPoint x="570" y="377.5" as="targetPoint" />
          </mxGeometry>
        </mxCell>
        <mxCell id="K-APa02A3dyl_sZXUiLP-18" value="list of events page" style="text;html=1;align=center;verticalAlign=middle;resizable=0;points=[];autosize=1;strokeColor=none;fillColor=none;" parent="K-APa02A3dyl_sZXUiLP-1" vertex="1">
          <mxGeometry x="525" y="420" width="120" height="30" as="geometry" />
        </mxCell>
        <mxCell id="K-APa02A3dyl_sZXUiLP-19" value="" style="endArrow=none;dashed=1;html=1;rounded=0;entryX=0.413;entryY=1.004;entryDx=0;entryDy=0;entryPerimeter=0;" parent="K-APa02A3dyl_sZXUiLP-1" target="K-APa02A3dyl_sZXUiLP-3" edge="1">
          <mxGeometry width="50" height="50" relative="1" as="geometry">
            <mxPoint x="484" y="590" as="sourcePoint" />
            <mxPoint x="540" y="430" as="targetPoint" />
          </mxGeometry>
        </mxCell>
        <mxCell id="K-APa02A3dyl_sZXUiLP-20" value="" style="html=1;points=[];perimeter=orthogonalPerimeter;" parent="K-APa02A3dyl_sZXUiLP-1" vertex="1">
          <mxGeometry x="570" y="480" width="10" height="70" as="geometry" />
        </mxCell>
        <mxCell id="K-APa02A3dyl_sZXUiLP-21" value="" style="endArrow=classic;html=1;rounded=0;" parent="K-APa02A3dyl_sZXUiLP-1" source="K-APa02A3dyl_sZXUiLP-20" edge="1">
          <mxGeometry width="50" height="50" relative="1" as="geometry">
            <mxPoint x="490" y="570" as="sourcePoint" />
            <mxPoint x="210" y="480" as="targetPoint" />
          </mxGeometry>
        </mxCell>
        <mxCell id="K-APa02A3dyl_sZXUiLP-22" value="2. display()" style="text;html=1;align=center;verticalAlign=middle;resizable=0;points=[];autosize=1;strokeColor=none;fillColor=none;" parent="K-APa02A3dyl_sZXUiLP-1" vertex="1">
          <mxGeometry x="340" y="455" width="80" height="30" as="geometry" />
        </mxCell>
        <mxCell id="K-APa02A3dyl_sZXUiLP-23" value="Guest" style="shape=umlActor;verticalLabelPosition=bottom;verticalAlign=top;html=1;outlineConnect=0;" parent="K-APa02A3dyl_sZXUiLP-1" vertex="1">
          <mxGeometry x="190" y="100" width="30" height="60" as="geometry" />
        </mxCell>
        <mxCell id="K-APa02A3dyl_sZXUiLP-24" value="" style="endArrow=none;dashed=1;html=1;rounded=0;" parent="K-APa02A3dyl_sZXUiLP-1" edge="1">
          <mxGeometry width="50" height="50" relative="1" as="geometry">
            <mxPoint x="715" y="285" as="sourcePoint" />
            <mxPoint x="715" y="180" as="targetPoint" />
          </mxGeometry>
        </mxCell>
        <mxCell id="K-APa02A3dyl_sZXUiLP-25" value="" style="ellipse;whiteSpace=wrap;html=1;aspect=fixed;" parent="K-APa02A3dyl_sZXUiLP-1" vertex="1">
          <mxGeometry x="690" y="100" width="50" height="50" as="geometry" />
        </mxCell>
        <mxCell id="K-APa02A3dyl_sZXUiLP-26" value="" style="endArrow=classic;html=1;rounded=0;" parent="K-APa02A3dyl_sZXUiLP-1" edge="1">
          <mxGeometry width="50" height="50" relative="1" as="geometry">
            <mxPoint x="730" y="100" as="sourcePoint" />
            <mxPoint x="720" y="100" as="targetPoint" />
            <Array as="points">
              <mxPoint x="720" y="100" />
            </Array>
          </mxGeometry>
        </mxCell>
        <mxCell id="K-APa02A3dyl_sZXUiLP-27" value="system" style="text;html=1;align=center;verticalAlign=middle;resizable=0;points=[];autosize=1;strokeColor=none;fillColor=none;" parent="K-APa02A3dyl_sZXUiLP-1" vertex="1">
          <mxGeometry x="685" y="150" width="60" height="30" as="geometry" />
        </mxCell>
        <mxCell id="K-APa02A3dyl_sZXUiLP-28" value="" style="endArrow=none;dashed=1;html=1;rounded=0;" parent="K-APa02A3dyl_sZXUiLP-1" edge="1">
          <mxGeometry width="50" height="50" relative="1" as="geometry">
            <mxPoint x="575" y="590" as="sourcePoint" />
            <mxPoint x="575" y="550" as="targetPoint" />
          </mxGeometry>
        </mxCell>
        <mxCell id="K-APa02A3dyl_sZXUiLP-29" value="" style="endArrow=none;dashed=1;html=1;rounded=0;entryX=0.6;entryY=-0.049;entryDx=0;entryDy=0;entryPerimeter=0;exitX=0.418;exitY=1.007;exitDx=0;exitDy=0;exitPerimeter=0;" parent="K-APa02A3dyl_sZXUiLP-1" source="K-APa02A3dyl_sZXUiLP-18" target="K-APa02A3dyl_sZXUiLP-20" edge="1">
          <mxGeometry width="50" height="50" relative="1" as="geometry">
            <mxPoint x="576" y="460" as="sourcePoint" />
            <mxPoint x="585" y="560" as="targetPoint" />
            <Array as="points">
              <mxPoint x="576" y="480" />
            </Array>
          </mxGeometry>
        </mxCell>
        <mxCell id="K-APa02A3dyl_sZXUiLP-30" value="" style="endArrow=none;dashed=1;html=1;rounded=0;entryX=0.413;entryY=1.004;entryDx=0;entryDy=0;entryPerimeter=0;" parent="K-APa02A3dyl_sZXUiLP-1" edge="1">
          <mxGeometry width="50" height="50" relative="1" as="geometry">
            <mxPoint x="715" y="590" as="sourcePoint" />
            <mxPoint x="714.5" y="440" as="targetPoint" />
          </mxGeometry>
        </mxCell>
      </root>
    </mxGraphModel>
  </diagram>
  <diagram name="7_CancelAnEvent" id="zaAUs7-5dyJ-uCIvsiVZ">
    <mxGraphModel dx="1290" dy="669" grid="1" gridSize="10" guides="1" tooltips="1" connect="1" arrows="1" fold="1" page="1" pageScale="1" pageWidth="1100" pageHeight="1700" math="0" shadow="0">
      <root>
        <mxCell id="IYCf29Um42xu9i2UbMTQ-0" />
        <mxCell id="IYCf29Um42xu9i2UbMTQ-1" parent="IYCf29Um42xu9i2UbMTQ-0" />
        <mxCell id="IYCf29Um42xu9i2UbMTQ-2" value="" style="html=1;points=[];perimeter=orthogonalPerimeter;" parent="IYCf29Um42xu9i2UbMTQ-1" vertex="1">
          <mxGeometry x="200" y="190" width="10" height="400" as="geometry" />
        </mxCell>
        <mxCell id="IYCf29Um42xu9i2UbMTQ-3" value="" style="html=1;points=[];perimeter=orthogonalPerimeter;" parent="IYCf29Um42xu9i2UbMTQ-1" vertex="1">
          <mxGeometry x="480" y="250" width="10" height="160" as="geometry" />
        </mxCell>
        <mxCell id="IYCf29Um42xu9i2UbMTQ-4" value="" style="endArrow=classic;html=1;rounded=0;exitX=1.12;exitY=0.162;exitDx=0;exitDy=0;exitPerimeter=0;" parent="IYCf29Um42xu9i2UbMTQ-1" source="IYCf29Um42xu9i2UbMTQ-2" target="IYCf29Um42xu9i2UbMTQ-3" edge="1">
          <mxGeometry width="50" height="50" relative="1" as="geometry">
            <mxPoint x="500" y="530" as="sourcePoint" />
            <mxPoint x="550" y="480" as="targetPoint" />
          </mxGeometry>
        </mxCell>
        <mxCell id="IYCf29Um42xu9i2UbMTQ-5" value="1. click()" style="text;html=1;align=center;verticalAlign=middle;resizable=0;points=[];autosize=1;strokeColor=none;fillColor=none;" parent="IYCf29Um42xu9i2UbMTQ-1" vertex="1">
          <mxGeometry x="315" y="225" width="70" height="30" as="geometry" />
        </mxCell>
        <mxCell id="IYCf29Um42xu9i2UbMTQ-6" value="" style="endArrow=none;dashed=1;html=1;rounded=0;" parent="IYCf29Um42xu9i2UbMTQ-1" edge="1">
          <mxGeometry width="50" height="50" relative="1" as="geometry">
            <mxPoint x="484.57000000000005" y="250" as="sourcePoint" />
            <mxPoint x="484.57000000000005" y="180" as="targetPoint" />
          </mxGeometry>
        </mxCell>
        <mxCell id="IYCf29Um42xu9i2UbMTQ-7" value="" style="ellipse;whiteSpace=wrap;html=1;aspect=fixed;" parent="IYCf29Um42xu9i2UbMTQ-1" vertex="1">
          <mxGeometry x="460" y="100" width="50" height="50" as="geometry" />
        </mxCell>
        <mxCell id="IYCf29Um42xu9i2UbMTQ-8" value="" style="endArrow=none;html=1;rounded=0;" parent="IYCf29Um42xu9i2UbMTQ-1" edge="1">
          <mxGeometry width="50" height="50" relative="1" as="geometry">
            <mxPoint x="400" y="130" as="sourcePoint" />
            <mxPoint x="460" y="129.41" as="targetPoint" />
          </mxGeometry>
        </mxCell>
        <mxCell id="IYCf29Um42xu9i2UbMTQ-9" value="" style="endArrow=none;html=1;rounded=0;" parent="IYCf29Um42xu9i2UbMTQ-1" edge="1">
          <mxGeometry width="50" height="50" relative="1" as="geometry">
            <mxPoint x="400" y="155" as="sourcePoint" />
            <mxPoint x="400" y="95" as="targetPoint" />
          </mxGeometry>
        </mxCell>
        <mxCell id="IYCf29Um42xu9i2UbMTQ-10" value="Show the list of the event available button" style="text;html=1;align=center;verticalAlign=middle;resizable=0;points=[];autosize=1;strokeColor=none;fillColor=none;" parent="IYCf29Um42xu9i2UbMTQ-1" vertex="1">
          <mxGeometry x="360" y="150" width="240" height="30" as="geometry" />
        </mxCell>
        <mxCell id="IYCf29Um42xu9i2UbMTQ-11" value="" style="html=1;points=[];perimeter=orthogonalPerimeter;" parent="IYCf29Um42xu9i2UbMTQ-1" vertex="1">
          <mxGeometry x="710" y="290" width="10" height="280" as="geometry" />
        </mxCell>
        <mxCell id="IYCf29Um42xu9i2UbMTQ-12" value="" style="endArrow=classic;html=1;rounded=0;exitX=1.055;exitY=0.254;exitDx=0;exitDy=0;exitPerimeter=0;entryX=0.566;entryY=0;entryDx=0;entryDy=0;entryPerimeter=0;" parent="IYCf29Um42xu9i2UbMTQ-1" source="IYCf29Um42xu9i2UbMTQ-3" target="IYCf29Um42xu9i2UbMTQ-11" edge="1">
          <mxGeometry width="50" height="50" relative="1" as="geometry">
            <mxPoint x="610" y="370" as="sourcePoint" />
            <mxPoint x="660" y="320" as="targetPoint" />
          </mxGeometry>
        </mxCell>
        <mxCell id="IYCf29Um42xu9i2UbMTQ-13" value="1.1 CreateRequest()" style="text;html=1;align=center;verticalAlign=middle;resizable=0;points=[];autosize=1;strokeColor=none;fillColor=none;" parent="IYCf29Um42xu9i2UbMTQ-1" vertex="1">
          <mxGeometry x="540" y="260" width="130" height="30" as="geometry" />
        </mxCell>
        <mxCell id="IYCf29Um42xu9i2UbMTQ-14" value="1.1.1 create()" style="html=1;verticalAlign=bottom;endArrow=open;dashed=1;endSize=8;" parent="IYCf29Um42xu9i2UbMTQ-1" edge="1">
          <mxGeometry x="0.0109" y="-2" relative="1" as="geometry">
            <mxPoint x="710" y="400" as="sourcePoint" />
            <mxPoint x="616" y="400" as="targetPoint" />
            <mxPoint as="offset" />
          </mxGeometry>
        </mxCell>
        <mxCell id="IYCf29Um42xu9i2UbMTQ-15" value="" style="ellipse;whiteSpace=wrap;html=1;aspect=fixed;" parent="IYCf29Um42xu9i2UbMTQ-1" vertex="1">
          <mxGeometry x="590" y="385" width="25" height="25" as="geometry" />
        </mxCell>
        <mxCell id="IYCf29Um42xu9i2UbMTQ-16" value="" style="endArrow=none;html=1;rounded=0;" parent="IYCf29Um42xu9i2UbMTQ-1" edge="1">
          <mxGeometry width="50" height="50" relative="1" as="geometry">
            <mxPoint x="570" y="397" as="sourcePoint" />
            <mxPoint x="590" y="397.12999999999994" as="targetPoint" />
          </mxGeometry>
        </mxCell>
        <mxCell id="IYCf29Um42xu9i2UbMTQ-17" value="" style="endArrow=none;html=1;rounded=0;" parent="IYCf29Um42xu9i2UbMTQ-1" edge="1">
          <mxGeometry width="50" height="50" relative="1" as="geometry">
            <mxPoint x="570" y="410" as="sourcePoint" />
            <mxPoint x="570" y="377.5" as="targetPoint" />
          </mxGeometry>
        </mxCell>
        <mxCell id="IYCf29Um42xu9i2UbMTQ-18" value="list of events available page" style="text;html=1;align=center;verticalAlign=middle;resizable=0;points=[];autosize=1;strokeColor=none;fillColor=none;" parent="IYCf29Um42xu9i2UbMTQ-1" vertex="1">
          <mxGeometry x="500" y="420" width="170" height="30" as="geometry" />
        </mxCell>
        <mxCell id="IYCf29Um42xu9i2UbMTQ-19" value="" style="endArrow=none;dashed=1;html=1;rounded=0;entryX=0.413;entryY=1.004;entryDx=0;entryDy=0;entryPerimeter=0;" parent="IYCf29Um42xu9i2UbMTQ-1" target="IYCf29Um42xu9i2UbMTQ-3" edge="1">
          <mxGeometry width="50" height="50" relative="1" as="geometry">
            <mxPoint x="484" y="590" as="sourcePoint" />
            <mxPoint x="540" y="430" as="targetPoint" />
          </mxGeometry>
        </mxCell>
        <mxCell id="IYCf29Um42xu9i2UbMTQ-20" value="" style="html=1;points=[];perimeter=orthogonalPerimeter;" parent="IYCf29Um42xu9i2UbMTQ-1" vertex="1">
          <mxGeometry x="570" y="480" width="10" height="70" as="geometry" />
        </mxCell>
        <mxCell id="IYCf29Um42xu9i2UbMTQ-21" value="" style="endArrow=classic;html=1;rounded=0;" parent="IYCf29Um42xu9i2UbMTQ-1" source="IYCf29Um42xu9i2UbMTQ-20" edge="1">
          <mxGeometry width="50" height="50" relative="1" as="geometry">
            <mxPoint x="490" y="570" as="sourcePoint" />
            <mxPoint x="210" y="480" as="targetPoint" />
          </mxGeometry>
        </mxCell>
        <mxCell id="IYCf29Um42xu9i2UbMTQ-22" value="2. display()" style="text;html=1;align=center;verticalAlign=middle;resizable=0;points=[];autosize=1;strokeColor=none;fillColor=none;" parent="IYCf29Um42xu9i2UbMTQ-1" vertex="1">
          <mxGeometry x="340" y="455" width="80" height="30" as="geometry" />
        </mxCell>
        <mxCell id="IYCf29Um42xu9i2UbMTQ-23" value="Manager" style="shape=umlActor;verticalLabelPosition=bottom;verticalAlign=top;html=1;outlineConnect=0;" parent="IYCf29Um42xu9i2UbMTQ-1" vertex="1">
          <mxGeometry x="190" y="100" width="30" height="60" as="geometry" />
        </mxCell>
        <mxCell id="IYCf29Um42xu9i2UbMTQ-24" value="" style="endArrow=none;dashed=1;html=1;rounded=0;" parent="IYCf29Um42xu9i2UbMTQ-1" edge="1">
          <mxGeometry width="50" height="50" relative="1" as="geometry">
            <mxPoint x="715" y="285" as="sourcePoint" />
            <mxPoint x="715" y="180" as="targetPoint" />
          </mxGeometry>
        </mxCell>
        <mxCell id="IYCf29Um42xu9i2UbMTQ-25" value="" style="ellipse;whiteSpace=wrap;html=1;aspect=fixed;" parent="IYCf29Um42xu9i2UbMTQ-1" vertex="1">
          <mxGeometry x="690" y="100" width="50" height="50" as="geometry" />
        </mxCell>
        <mxCell id="IYCf29Um42xu9i2UbMTQ-26" value="" style="endArrow=classic;html=1;rounded=0;" parent="IYCf29Um42xu9i2UbMTQ-1" edge="1">
          <mxGeometry width="50" height="50" relative="1" as="geometry">
            <mxPoint x="730" y="100" as="sourcePoint" />
            <mxPoint x="720" y="100" as="targetPoint" />
            <Array as="points">
              <mxPoint x="720" y="100" />
            </Array>
          </mxGeometry>
        </mxCell>
        <mxCell id="IYCf29Um42xu9i2UbMTQ-27" value="system" style="text;html=1;align=center;verticalAlign=middle;resizable=0;points=[];autosize=1;strokeColor=none;fillColor=none;" parent="IYCf29Um42xu9i2UbMTQ-1" vertex="1">
          <mxGeometry x="685" y="150" width="60" height="30" as="geometry" />
        </mxCell>
        <mxCell id="IYCf29Um42xu9i2UbMTQ-28" value="" style="endArrow=none;dashed=1;html=1;rounded=0;" parent="IYCf29Um42xu9i2UbMTQ-1" edge="1">
          <mxGeometry width="50" height="50" relative="1" as="geometry">
            <mxPoint x="575" y="590" as="sourcePoint" />
            <mxPoint x="575" y="550" as="targetPoint" />
          </mxGeometry>
        </mxCell>
        <mxCell id="IYCf29Um42xu9i2UbMTQ-29" value="" style="endArrow=none;dashed=1;html=1;rounded=0;entryX=0.6;entryY=-0.049;entryDx=0;entryDy=0;entryPerimeter=0;" parent="IYCf29Um42xu9i2UbMTQ-1" target="IYCf29Um42xu9i2UbMTQ-20" edge="1">
          <mxGeometry width="50" height="50" relative="1" as="geometry">
            <mxPoint x="576" y="450" as="sourcePoint" />
            <mxPoint x="585" y="560" as="targetPoint" />
            <Array as="points">
              <mxPoint x="576" y="480" />
            </Array>
          </mxGeometry>
        </mxCell>
        <mxCell id="IYCf29Um42xu9i2UbMTQ-30" value="" style="endArrow=none;dashed=1;html=1;rounded=0;" parent="IYCf29Um42xu9i2UbMTQ-1" edge="1">
          <mxGeometry width="50" height="50" relative="1" as="geometry">
            <mxPoint x="715" y="590" as="sourcePoint" />
            <mxPoint x="715" y="570" as="targetPoint" />
          </mxGeometry>
        </mxCell>
        <mxCell id="z_ryyINl31QQumt1a7Ne-0" value="3: Select and cancel()" style="html=1;verticalAlign=bottom;endArrow=open;dashed=1;endSize=8;entryX=-0.2;entryY=0.991;entryDx=0;entryDy=0;entryPerimeter=0;" parent="IYCf29Um42xu9i2UbMTQ-1" target="IYCf29Um42xu9i2UbMTQ-20" edge="1">
          <mxGeometry x="0.0109" y="-2" relative="1" as="geometry">
            <mxPoint x="210" y="550" as="sourcePoint" />
            <mxPoint x="445" y="550" as="targetPoint" />
            <mxPoint as="offset" />
          </mxGeometry>
        </mxCell>
        <mxCell id="z_ryyINl31QQumt1a7Ne-1" value="" style="endArrow=classic;html=1;rounded=0;exitX=1.12;exitY=0.162;exitDx=0;exitDy=0;exitPerimeter=0;" parent="IYCf29Um42xu9i2UbMTQ-1" edge="1">
          <mxGeometry width="50" height="50" relative="1" as="geometry">
            <mxPoint x="580" y="530" as="sourcePoint" />
            <mxPoint x="710" y="530" as="targetPoint" />
          </mxGeometry>
        </mxCell>
        <mxCell id="z_ryyINl31QQumt1a7Ne-2" value="4; Update()" style="text;html=1;align=center;verticalAlign=middle;resizable=0;points=[];autosize=1;strokeColor=none;fillColor=none;" parent="IYCf29Um42xu9i2UbMTQ-1" vertex="1">
          <mxGeometry x="600" y="505" width="80" height="30" as="geometry" />
        </mxCell>
        <mxCell id="z_ryyINl31QQumt1a7Ne-3" value="" style="html=1;points=[];perimeter=orthogonalPerimeter;" parent="IYCf29Um42xu9i2UbMTQ-1" vertex="1">
          <mxGeometry x="950" y="190" width="10" height="400" as="geometry" />
        </mxCell>
        <mxCell id="z_ryyINl31QQumt1a7Ne-4" value="" style="endArrow=classic;html=1;rounded=0;exitX=1.147;exitY=0.972;exitDx=0;exitDy=0;exitPerimeter=0;entryX=0.018;entryY=0.93;entryDx=0;entryDy=0;entryPerimeter=0;" parent="IYCf29Um42xu9i2UbMTQ-1" source="IYCf29Um42xu9i2UbMTQ-11" target="z_ryyINl31QQumt1a7Ne-3" edge="1">
          <mxGeometry width="50" height="50" relative="1" as="geometry">
            <mxPoint x="840" y="320" as="sourcePoint" />
            <mxPoint x="890" y="270" as="targetPoint" />
          </mxGeometry>
        </mxCell>
        <mxCell id="z_ryyINl31QQumt1a7Ne-5" value="4.1: sendNotification()" style="text;html=1;align=center;verticalAlign=middle;resizable=0;points=[];autosize=1;strokeColor=none;fillColor=none;" parent="IYCf29Um42xu9i2UbMTQ-1" vertex="1">
          <mxGeometry x="770" y="535" width="140" height="30" as="geometry" />
        </mxCell>
        <mxCell id="z_ryyINl31QQumt1a7Ne-6" value="Attendees and staff" style="shape=umlActor;verticalLabelPosition=bottom;verticalAlign=top;html=1;outlineConnect=0;" parent="IYCf29Um42xu9i2UbMTQ-1" vertex="1">
          <mxGeometry x="940" y="100" width="30" height="60" as="geometry" />
        </mxCell>
      </root>
    </mxGraphModel>
  </diagram>
  <diagram name="8_editEmployeetask" id="r0XRww3a9zrzQkf-yQt2">
    <mxGraphModel dx="1290" dy="669" grid="1" gridSize="10" guides="1" tooltips="1" connect="1" arrows="1" fold="1" page="1" pageScale="1" pageWidth="1100" pageHeight="1700" math="0" shadow="0">
      <root>
        <mxCell id="WOcoNwq4HpyFYYE923NX-0" />
        <mxCell id="WOcoNwq4HpyFYYE923NX-1" parent="WOcoNwq4HpyFYYE923NX-0" />
        <mxCell id="WOcoNwq4HpyFYYE923NX-2" value="" style="html=1;points=[];perimeter=orthogonalPerimeter;" parent="WOcoNwq4HpyFYYE923NX-1" vertex="1">
          <mxGeometry x="200" y="190" width="10" height="470" as="geometry" />
        </mxCell>
        <mxCell id="WOcoNwq4HpyFYYE923NX-3" value="" style="html=1;points=[];perimeter=orthogonalPerimeter;" parent="WOcoNwq4HpyFYYE923NX-1" vertex="1">
          <mxGeometry x="480" y="250" width="10" height="300" as="geometry" />
        </mxCell>
        <mxCell id="WOcoNwq4HpyFYYE923NX-4" value="" style="endArrow=classic;html=1;rounded=0;exitX=1.12;exitY=0.162;exitDx=0;exitDy=0;exitPerimeter=0;" parent="WOcoNwq4HpyFYYE923NX-1" source="WOcoNwq4HpyFYYE923NX-2" target="WOcoNwq4HpyFYYE923NX-3" edge="1">
          <mxGeometry width="50" height="50" relative="1" as="geometry">
            <mxPoint x="500" y="530" as="sourcePoint" />
            <mxPoint x="550" y="480" as="targetPoint" />
          </mxGeometry>
        </mxCell>
        <mxCell id="WOcoNwq4HpyFYYE923NX-5" value="1. click()" style="text;html=1;align=center;verticalAlign=middle;resizable=0;points=[];autosize=1;strokeColor=none;fillColor=none;" parent="WOcoNwq4HpyFYYE923NX-1" vertex="1">
          <mxGeometry x="315" y="225" width="70" height="30" as="geometry" />
        </mxCell>
        <mxCell id="WOcoNwq4HpyFYYE923NX-6" value="" style="endArrow=none;dashed=1;html=1;rounded=0;" parent="WOcoNwq4HpyFYYE923NX-1" edge="1">
          <mxGeometry width="50" height="50" relative="1" as="geometry">
            <mxPoint x="484.57000000000005" y="250" as="sourcePoint" />
            <mxPoint x="484.57000000000005" y="180" as="targetPoint" />
          </mxGeometry>
        </mxCell>
        <mxCell id="WOcoNwq4HpyFYYE923NX-7" value="" style="ellipse;whiteSpace=wrap;html=1;aspect=fixed;" parent="WOcoNwq4HpyFYYE923NX-1" vertex="1">
          <mxGeometry x="460" y="100" width="50" height="50" as="geometry" />
        </mxCell>
        <mxCell id="WOcoNwq4HpyFYYE923NX-8" value="" style="endArrow=none;html=1;rounded=0;" parent="WOcoNwq4HpyFYYE923NX-1" edge="1">
          <mxGeometry width="50" height="50" relative="1" as="geometry">
            <mxPoint x="400" y="130" as="sourcePoint" />
            <mxPoint x="460" y="129.41" as="targetPoint" />
          </mxGeometry>
        </mxCell>
        <mxCell id="WOcoNwq4HpyFYYE923NX-9" value="" style="endArrow=none;html=1;rounded=0;" parent="WOcoNwq4HpyFYYE923NX-1" edge="1">
          <mxGeometry width="50" height="50" relative="1" as="geometry">
            <mxPoint x="400" y="155" as="sourcePoint" />
            <mxPoint x="400" y="95" as="targetPoint" />
          </mxGeometry>
        </mxCell>
        <mxCell id="WOcoNwq4HpyFYYE923NX-10" value="Edit Employee&#39;s task button" style="text;html=1;align=center;verticalAlign=middle;resizable=0;points=[];autosize=1;strokeColor=none;fillColor=none;" parent="WOcoNwq4HpyFYYE923NX-1" vertex="1">
          <mxGeometry x="395" y="150" width="170" height="30" as="geometry" />
        </mxCell>
        <mxCell id="WOcoNwq4HpyFYYE923NX-11" value="" style="html=1;points=[];perimeter=orthogonalPerimeter;" parent="WOcoNwq4HpyFYYE923NX-1" vertex="1">
          <mxGeometry x="710" y="290" width="10" height="350" as="geometry" />
        </mxCell>
        <mxCell id="WOcoNwq4HpyFYYE923NX-13" value="1.1 CreateRequest()" style="text;html=1;align=center;verticalAlign=middle;resizable=0;points=[];autosize=1;strokeColor=none;fillColor=none;" parent="WOcoNwq4HpyFYYE923NX-1" vertex="1">
          <mxGeometry x="540" y="260" width="130" height="30" as="geometry" />
        </mxCell>
        <mxCell id="WOcoNwq4HpyFYYE923NX-14" value="1.1.1 create()" style="html=1;verticalAlign=bottom;endArrow=open;dashed=1;endSize=8;" parent="WOcoNwq4HpyFYYE923NX-1" edge="1">
          <mxGeometry x="0.0109" y="-2" relative="1" as="geometry">
            <mxPoint x="710" y="336.25" as="sourcePoint" />
            <mxPoint x="616" y="336.25" as="targetPoint" />
            <mxPoint as="offset" />
          </mxGeometry>
        </mxCell>
        <mxCell id="WOcoNwq4HpyFYYE923NX-15" value="" style="ellipse;whiteSpace=wrap;html=1;aspect=fixed;" parent="WOcoNwq4HpyFYYE923NX-1" vertex="1">
          <mxGeometry x="590" y="321.25" width="25" height="25" as="geometry" />
        </mxCell>
        <mxCell id="WOcoNwq4HpyFYYE923NX-16" value="" style="endArrow=none;html=1;rounded=0;" parent="WOcoNwq4HpyFYYE923NX-1" edge="1">
          <mxGeometry width="50" height="50" relative="1" as="geometry">
            <mxPoint x="570" y="333.25" as="sourcePoint" />
            <mxPoint x="590" y="333.37999999999994" as="targetPoint" />
          </mxGeometry>
        </mxCell>
        <mxCell id="WOcoNwq4HpyFYYE923NX-17" value="" style="endArrow=none;html=1;rounded=0;" parent="WOcoNwq4HpyFYYE923NX-1" edge="1">
          <mxGeometry width="50" height="50" relative="1" as="geometry">
            <mxPoint x="570" y="346.25" as="sourcePoint" />
            <mxPoint x="570" y="313.75" as="targetPoint" />
          </mxGeometry>
        </mxCell>
        <mxCell id="WOcoNwq4HpyFYYE923NX-18" value="list all the employee page" style="text;html=1;align=center;verticalAlign=middle;resizable=0;points=[];autosize=1;strokeColor=none;fillColor=none;" parent="WOcoNwq4HpyFYYE923NX-1" vertex="1">
          <mxGeometry x="505" y="360" width="160" height="30" as="geometry" />
        </mxCell>
        <mxCell id="WOcoNwq4HpyFYYE923NX-19" value="" style="endArrow=none;dashed=1;html=1;rounded=0;entryX=0.413;entryY=1.004;entryDx=0;entryDy=0;entryPerimeter=0;" parent="WOcoNwq4HpyFYYE923NX-1" target="WOcoNwq4HpyFYYE923NX-3" edge="1">
          <mxGeometry width="50" height="50" relative="1" as="geometry">
            <mxPoint x="484" y="670" as="sourcePoint" />
            <mxPoint x="540" y="430" as="targetPoint" />
          </mxGeometry>
        </mxCell>
        <mxCell id="WOcoNwq4HpyFYYE923NX-20" value="" style="html=1;points=[];perimeter=orthogonalPerimeter;" parent="WOcoNwq4HpyFYYE923NX-1" vertex="1">
          <mxGeometry x="570" y="395" width="10" height="145" as="geometry" />
        </mxCell>
        <mxCell id="WOcoNwq4HpyFYYE923NX-23" value="Manager" style="shape=umlActor;verticalLabelPosition=bottom;verticalAlign=top;html=1;outlineConnect=0;" parent="WOcoNwq4HpyFYYE923NX-1" vertex="1">
          <mxGeometry x="190" y="100" width="30" height="60" as="geometry" />
        </mxCell>
        <mxCell id="WOcoNwq4HpyFYYE923NX-24" value="" style="endArrow=none;dashed=1;html=1;rounded=0;" parent="WOcoNwq4HpyFYYE923NX-1" edge="1">
          <mxGeometry width="50" height="50" relative="1" as="geometry">
            <mxPoint x="715" y="285" as="sourcePoint" />
            <mxPoint x="715" y="180" as="targetPoint" />
          </mxGeometry>
        </mxCell>
        <mxCell id="WOcoNwq4HpyFYYE923NX-25" value="" style="ellipse;whiteSpace=wrap;html=1;aspect=fixed;" parent="WOcoNwq4HpyFYYE923NX-1" vertex="1">
          <mxGeometry x="690" y="100" width="50" height="50" as="geometry" />
        </mxCell>
        <mxCell id="WOcoNwq4HpyFYYE923NX-26" value="" style="endArrow=classic;html=1;rounded=0;" parent="WOcoNwq4HpyFYYE923NX-1" edge="1">
          <mxGeometry width="50" height="50" relative="1" as="geometry">
            <mxPoint x="730" y="100" as="sourcePoint" />
            <mxPoint x="720" y="100" as="targetPoint" />
            <Array as="points">
              <mxPoint x="720" y="100" />
            </Array>
          </mxGeometry>
        </mxCell>
        <mxCell id="WOcoNwq4HpyFYYE923NX-27" value="system" style="text;html=1;align=center;verticalAlign=middle;resizable=0;points=[];autosize=1;strokeColor=none;fillColor=none;" parent="WOcoNwq4HpyFYYE923NX-1" vertex="1">
          <mxGeometry x="685" y="150" width="60" height="30" as="geometry" />
        </mxCell>
        <mxCell id="WOcoNwq4HpyFYYE923NX-28" value="" style="endArrow=none;dashed=1;html=1;rounded=0;entryX=0.536;entryY=1.002;entryDx=0;entryDy=0;entryPerimeter=0;" parent="WOcoNwq4HpyFYYE923NX-1" target="WOcoNwq4HpyFYYE923NX-20" edge="1">
          <mxGeometry width="50" height="50" relative="1" as="geometry">
            <mxPoint x="575" y="670" as="sourcePoint" />
            <mxPoint x="575" y="550" as="targetPoint" />
          </mxGeometry>
        </mxCell>
        <mxCell id="WOcoNwq4HpyFYYE923NX-30" value="" style="endArrow=none;dashed=1;html=1;rounded=0;" parent="WOcoNwq4HpyFYYE923NX-1" edge="1">
          <mxGeometry width="50" height="50" relative="1" as="geometry">
            <mxPoint x="715" y="660" as="sourcePoint" />
            <mxPoint x="715" y="640" as="targetPoint" />
          </mxGeometry>
        </mxCell>
        <mxCell id="WOcoNwq4HpyFYYE923NX-34" value="" style="html=1;points=[];perimeter=orthogonalPerimeter;" parent="WOcoNwq4HpyFYYE923NX-1" vertex="1">
          <mxGeometry x="950" y="190" width="10" height="400" as="geometry" />
        </mxCell>
        <mxCell id="WOcoNwq4HpyFYYE923NX-37" value="Attendees and staff" style="shape=umlActor;verticalLabelPosition=bottom;verticalAlign=top;html=1;outlineConnect=0;" parent="WOcoNwq4HpyFYYE923NX-1" vertex="1">
          <mxGeometry x="940" y="100" width="30" height="60" as="geometry" />
        </mxCell>
        <mxCell id="i1iEdYm5mw4SY5W_ZqSf-0" value="" style="endArrow=classic;html=1;rounded=0;entryX=-0.184;entryY=0.008;entryDx=0;entryDy=0;entryPerimeter=0;exitX=1.152;exitY=0.143;exitDx=0;exitDy=0;exitPerimeter=0;" parent="WOcoNwq4HpyFYYE923NX-1" source="WOcoNwq4HpyFYYE923NX-3" target="WOcoNwq4HpyFYYE923NX-11" edge="1">
          <mxGeometry width="50" height="50" relative="1" as="geometry">
            <mxPoint x="560" y="310" as="sourcePoint" />
            <mxPoint x="610" y="260" as="targetPoint" />
          </mxGeometry>
        </mxCell>
        <mxCell id="i1iEdYm5mw4SY5W_ZqSf-2" value="" style="endArrow=classic;html=1;rounded=0;entryX=1.331;entryY=0.432;entryDx=0;entryDy=0;entryPerimeter=0;" parent="WOcoNwq4HpyFYYE923NX-1" source="WOcoNwq4HpyFYYE923NX-20" target="WOcoNwq4HpyFYYE923NX-2" edge="1">
          <mxGeometry width="50" height="50" relative="1" as="geometry">
            <mxPoint x="520" y="470" as="sourcePoint" />
            <mxPoint x="570" y="420" as="targetPoint" />
          </mxGeometry>
        </mxCell>
        <mxCell id="i1iEdYm5mw4SY5W_ZqSf-3" value="2: Display()" style="text;html=1;align=center;verticalAlign=middle;resizable=0;points=[];autosize=1;strokeColor=none;fillColor=none;" parent="WOcoNwq4HpyFYYE923NX-1" vertex="1">
          <mxGeometry x="340" y="365" width="80" height="30" as="geometry" />
        </mxCell>
        <mxCell id="i1iEdYm5mw4SY5W_ZqSf-4" value="3: SelectEmployee()" style="html=1;verticalAlign=bottom;endArrow=open;dashed=1;endSize=8;exitX=1;exitY=0.489;exitDx=0;exitDy=0;exitPerimeter=0;entryX=-0.011;entryY=0.183;entryDx=0;entryDy=0;entryPerimeter=0;" parent="WOcoNwq4HpyFYYE923NX-1" source="WOcoNwq4HpyFYYE923NX-2" target="WOcoNwq4HpyFYYE923NX-20" edge="1">
          <mxGeometry x="0.0109" y="-2" relative="1" as="geometry">
            <mxPoint x="210" y="460" as="sourcePoint" />
            <mxPoint x="560" y="460" as="targetPoint" />
            <mxPoint as="offset" />
          </mxGeometry>
        </mxCell>
        <mxCell id="i1iEdYm5mw4SY5W_ZqSf-5" value="" style="endArrow=classic;html=1;rounded=0;entryX=0.124;entryY=0.601;entryDx=0;entryDy=0;entryPerimeter=0;" parent="WOcoNwq4HpyFYYE923NX-1" source="WOcoNwq4HpyFYYE923NX-20" target="WOcoNwq4HpyFYYE923NX-11" edge="1">
          <mxGeometry width="50" height="50" relative="1" as="geometry">
            <mxPoint x="520" y="540" as="sourcePoint" />
            <mxPoint x="570" y="490" as="targetPoint" />
          </mxGeometry>
        </mxCell>
        <mxCell id="i1iEdYm5mw4SY5W_ZqSf-6" value="&lt;font style=&quot;font-size: 8px;&quot;&gt;4: requestEmployeeTaskList()&lt;/font&gt;" style="text;html=1;align=center;verticalAlign=middle;resizable=0;points=[];autosize=1;strokeColor=none;fillColor=none;" parent="WOcoNwq4HpyFYYE923NX-1" vertex="1">
          <mxGeometry x="580" y="470" width="130" height="30" as="geometry" />
        </mxCell>
        <mxCell id="i1iEdYm5mw4SY5W_ZqSf-7" value="" style="endArrow=classic;html=1;rounded=0;exitX=1.062;exitY=0.702;exitDx=0;exitDy=0;exitPerimeter=0;" parent="WOcoNwq4HpyFYYE923NX-1" source="WOcoNwq4HpyFYYE923NX-11" target="WOcoNwq4HpyFYYE923NX-34" edge="1">
          <mxGeometry width="50" height="50" relative="1" as="geometry">
            <mxPoint x="690" y="540" as="sourcePoint" />
            <mxPoint x="740" y="490" as="targetPoint" />
          </mxGeometry>
        </mxCell>
        <mxCell id="i1iEdYm5mw4SY5W_ZqSf-8" value="4.1: sendNotification()" style="text;html=1;align=center;verticalAlign=middle;resizable=0;points=[];autosize=1;strokeColor=none;fillColor=none;" parent="WOcoNwq4HpyFYYE923NX-1" vertex="1">
          <mxGeometry x="770" y="500" width="140" height="30" as="geometry" />
        </mxCell>
        <mxCell id="i1iEdYm5mw4SY5W_ZqSf-9" value="4.2: Display()" style="html=1;verticalAlign=bottom;endArrow=open;dashed=1;endSize=8;exitX=-0.16;exitY=0.778;exitDx=0;exitDy=0;exitPerimeter=0;entryX=1;entryY=0.5;entryDx=0;entryDy=0;" parent="WOcoNwq4HpyFYYE923NX-1" source="WOcoNwq4HpyFYYE923NX-11" target="i1iEdYm5mw4SY5W_ZqSf-10" edge="1">
          <mxGeometry x="0.0109" y="-2" relative="1" as="geometry">
            <mxPoint x="290" y="660" as="sourcePoint" />
            <mxPoint x="350" y="510" as="targetPoint" />
            <mxPoint as="offset" />
          </mxGeometry>
        </mxCell>
        <mxCell id="i1iEdYm5mw4SY5W_ZqSf-10" value="" style="ellipse;whiteSpace=wrap;html=1;aspect=fixed;" parent="WOcoNwq4HpyFYYE923NX-1" vertex="1">
          <mxGeometry x="325" y="547.5" width="25" height="25" as="geometry" />
        </mxCell>
        <mxCell id="i1iEdYm5mw4SY5W_ZqSf-11" value="" style="endArrow=none;html=1;rounded=0;" parent="WOcoNwq4HpyFYYE923NX-1" edge="1">
          <mxGeometry width="50" height="50" relative="1" as="geometry">
            <mxPoint x="305" y="559.5" as="sourcePoint" />
            <mxPoint x="325" y="559.6299999999999" as="targetPoint" />
          </mxGeometry>
        </mxCell>
        <mxCell id="i1iEdYm5mw4SY5W_ZqSf-12" value="" style="endArrow=none;html=1;rounded=0;" parent="WOcoNwq4HpyFYYE923NX-1" edge="1">
          <mxGeometry width="50" height="50" relative="1" as="geometry">
            <mxPoint x="305" y="572.5" as="sourcePoint" />
            <mxPoint x="305" y="540" as="targetPoint" />
          </mxGeometry>
        </mxCell>
        <mxCell id="i1iEdYm5mw4SY5W_ZqSf-13" value="employee tasklist page" style="text;html=1;align=center;verticalAlign=middle;resizable=0;points=[];autosize=1;strokeColor=none;fillColor=none;" parent="WOcoNwq4HpyFYYE923NX-1" vertex="1">
          <mxGeometry x="262.5" y="572.5" width="150" height="30" as="geometry" />
        </mxCell>
        <mxCell id="i1iEdYm5mw4SY5W_ZqSf-14" value="" style="html=1;points=[];perimeter=orthogonalPerimeter;" parent="WOcoNwq4HpyFYYE923NX-1" vertex="1">
          <mxGeometry x="305" y="630" width="10" height="30" as="geometry" />
        </mxCell>
        <mxCell id="i1iEdYm5mw4SY5W_ZqSf-15" value="" style="endArrow=classic;html=1;rounded=0;exitX=1.103;exitY=0.94;exitDx=0;exitDy=0;exitPerimeter=0;entryX=0.121;entryY=0.053;entryDx=0;entryDy=0;entryPerimeter=0;" parent="WOcoNwq4HpyFYYE923NX-1" source="WOcoNwq4HpyFYYE923NX-2" target="i1iEdYm5mw4SY5W_ZqSf-14" edge="1">
          <mxGeometry width="50" height="50" relative="1" as="geometry">
            <mxPoint x="600" y="540" as="sourcePoint" />
            <mxPoint x="650" y="490" as="targetPoint" />
          </mxGeometry>
        </mxCell>
        <mxCell id="i1iEdYm5mw4SY5W_ZqSf-16" value="5: Edit()" style="text;html=1;align=center;verticalAlign=middle;resizable=0;points=[];autosize=1;strokeColor=none;fillColor=none;" parent="WOcoNwq4HpyFYYE923NX-1" vertex="1">
          <mxGeometry x="220" y="600" width="70" height="30" as="geometry" />
        </mxCell>
        <mxCell id="i1iEdYm5mw4SY5W_ZqSf-18" value="5.1 Update()" style="text;html=1;align=center;verticalAlign=middle;resizable=0;points=[];autosize=1;strokeColor=none;fillColor=none;" parent="WOcoNwq4HpyFYYE923NX-1" vertex="1">
          <mxGeometry x="480" y="610" width="90" height="30" as="geometry" />
        </mxCell>
        <mxCell id="RefkQ9UiEkOHhK2VOuoC-3" value="" style="endArrow=classic;html=1;rounded=0;exitX=0.911;exitY=0.343;exitDx=0;exitDy=0;exitPerimeter=0;entryX=-0.229;entryY=1;entryDx=0;entryDy=0;entryPerimeter=0;" parent="WOcoNwq4HpyFYYE923NX-1" source="i1iEdYm5mw4SY5W_ZqSf-14" target="WOcoNwq4HpyFYYE923NX-11" edge="1">
          <mxGeometry width="50" height="50" relative="1" as="geometry">
            <mxPoint x="440" y="550" as="sourcePoint" />
            <mxPoint x="490" y="500" as="targetPoint" />
          </mxGeometry>
        </mxCell>
      </root>
    </mxGraphModel>
  </diagram>
  <diagram name="9_LogIntoSystem" id="DWvURbhmzV6_W10kTI0R">
    <mxGraphModel dx="1290" dy="669" grid="1" gridSize="10" guides="1" tooltips="1" connect="1" arrows="1" fold="1" page="1" pageScale="1" pageWidth="1100" pageHeight="1700" math="0" shadow="0">
      <root>
        <mxCell id="vZn9mswB0erQc4P9EEzg-0" />
        <mxCell id="vZn9mswB0erQc4P9EEzg-1" parent="vZn9mswB0erQc4P9EEzg-0" />
        <mxCell id="vZn9mswB0erQc4P9EEzg-2" value="" style="html=1;points=[];perimeter=orthogonalPerimeter;" parent="vZn9mswB0erQc4P9EEzg-1" vertex="1">
          <mxGeometry x="200" y="190" width="10" height="540" as="geometry" />
        </mxCell>
        <mxCell id="vZn9mswB0erQc4P9EEzg-3" value="" style="html=1;points=[];perimeter=orthogonalPerimeter;" parent="vZn9mswB0erQc4P9EEzg-1" vertex="1">
          <mxGeometry x="480" y="250" width="10" height="440" as="geometry" />
        </mxCell>
        <mxCell id="vZn9mswB0erQc4P9EEzg-4" value="" style="endArrow=classic;html=1;rounded=0;exitX=1.28;exitY=0.111;exitDx=0;exitDy=0;exitPerimeter=0;" parent="vZn9mswB0erQc4P9EEzg-1" source="vZn9mswB0erQc4P9EEzg-2" target="vZn9mswB0erQc4P9EEzg-3" edge="1">
          <mxGeometry width="50" height="50" relative="1" as="geometry">
            <mxPoint x="500" y="530" as="sourcePoint" />
            <mxPoint x="550" y="480" as="targetPoint" />
          </mxGeometry>
        </mxCell>
        <mxCell id="vZn9mswB0erQc4P9EEzg-5" value="1. click()" style="text;html=1;align=center;verticalAlign=middle;resizable=0;points=[];autosize=1;strokeColor=none;fillColor=none;" parent="vZn9mswB0erQc4P9EEzg-1" vertex="1">
          <mxGeometry x="315" y="225" width="70" height="30" as="geometry" />
        </mxCell>
        <mxCell id="vZn9mswB0erQc4P9EEzg-6" value="" style="endArrow=none;dashed=1;html=1;rounded=0;" parent="vZn9mswB0erQc4P9EEzg-1" edge="1">
          <mxGeometry width="50" height="50" relative="1" as="geometry">
            <mxPoint x="484.57000000000005" y="250" as="sourcePoint" />
            <mxPoint x="484.57000000000005" y="180" as="targetPoint" />
          </mxGeometry>
        </mxCell>
        <mxCell id="vZn9mswB0erQc4P9EEzg-7" value="" style="ellipse;whiteSpace=wrap;html=1;aspect=fixed;" parent="vZn9mswB0erQc4P9EEzg-1" vertex="1">
          <mxGeometry x="460" y="100" width="50" height="50" as="geometry" />
        </mxCell>
        <mxCell id="vZn9mswB0erQc4P9EEzg-8" value="" style="endArrow=none;html=1;rounded=0;" parent="vZn9mswB0erQc4P9EEzg-1" edge="1">
          <mxGeometry width="50" height="50" relative="1" as="geometry">
            <mxPoint x="400" y="130" as="sourcePoint" />
            <mxPoint x="460" y="129.41" as="targetPoint" />
          </mxGeometry>
        </mxCell>
        <mxCell id="vZn9mswB0erQc4P9EEzg-9" value="" style="endArrow=none;html=1;rounded=0;" parent="vZn9mswB0erQc4P9EEzg-1" edge="1">
          <mxGeometry width="50" height="50" relative="1" as="geometry">
            <mxPoint x="400" y="155" as="sourcePoint" />
            <mxPoint x="400" y="95" as="targetPoint" />
          </mxGeometry>
        </mxCell>
        <mxCell id="vZn9mswB0erQc4P9EEzg-10" value="Log In Button" style="text;html=1;align=center;verticalAlign=middle;resizable=0;points=[];autosize=1;strokeColor=none;fillColor=none;" parent="vZn9mswB0erQc4P9EEzg-1" vertex="1">
          <mxGeometry x="435" y="150" width="90" height="30" as="geometry" />
        </mxCell>
        <mxCell id="vZn9mswB0erQc4P9EEzg-11" value="" style="html=1;points=[];perimeter=orthogonalPerimeter;" parent="vZn9mswB0erQc4P9EEzg-1" vertex="1">
          <mxGeometry x="710" y="290" width="10" height="330" as="geometry" />
        </mxCell>
        <mxCell id="vZn9mswB0erQc4P9EEzg-12" value="" style="endArrow=classic;html=1;rounded=0;exitX=1.2;exitY=0.088;exitDx=0;exitDy=0;exitPerimeter=0;entryX=0.566;entryY=0;entryDx=0;entryDy=0;entryPerimeter=0;" parent="vZn9mswB0erQc4P9EEzg-1" source="vZn9mswB0erQc4P9EEzg-3" target="vZn9mswB0erQc4P9EEzg-11" edge="1">
          <mxGeometry width="50" height="50" relative="1" as="geometry">
            <mxPoint x="610" y="370" as="sourcePoint" />
            <mxPoint x="660" y="320" as="targetPoint" />
          </mxGeometry>
        </mxCell>
        <mxCell id="vZn9mswB0erQc4P9EEzg-13" value="1.1 sendRequest()" style="text;html=1;align=center;verticalAlign=middle;resizable=0;points=[];autosize=1;strokeColor=none;fillColor=none;" parent="vZn9mswB0erQc4P9EEzg-1" vertex="1">
          <mxGeometry x="545" y="260" width="120" height="30" as="geometry" />
        </mxCell>
        <mxCell id="vZn9mswB0erQc4P9EEzg-14" value="1.1.1 create()" style="html=1;verticalAlign=bottom;endArrow=open;dashed=1;endSize=8;" parent="vZn9mswB0erQc4P9EEzg-1" edge="1">
          <mxGeometry x="0.0109" y="-2" relative="1" as="geometry">
            <mxPoint x="709" y="333.46" as="sourcePoint" />
            <mxPoint x="615" y="333.46" as="targetPoint" />
            <mxPoint as="offset" />
          </mxGeometry>
        </mxCell>
        <mxCell id="vZn9mswB0erQc4P9EEzg-15" value="" style="ellipse;whiteSpace=wrap;html=1;aspect=fixed;" parent="vZn9mswB0erQc4P9EEzg-1" vertex="1">
          <mxGeometry x="590" y="321.25" width="25" height="25" as="geometry" />
        </mxCell>
        <mxCell id="vZn9mswB0erQc4P9EEzg-16" value="" style="endArrow=none;html=1;rounded=0;" parent="vZn9mswB0erQc4P9EEzg-1" edge="1">
          <mxGeometry width="50" height="50" relative="1" as="geometry">
            <mxPoint x="570" y="333.25" as="sourcePoint" />
            <mxPoint x="590" y="333.37999999999994" as="targetPoint" />
          </mxGeometry>
        </mxCell>
        <mxCell id="vZn9mswB0erQc4P9EEzg-17" value="" style="endArrow=none;html=1;rounded=0;" parent="vZn9mswB0erQc4P9EEzg-1" edge="1">
          <mxGeometry width="50" height="50" relative="1" as="geometry">
            <mxPoint x="570" y="346.25" as="sourcePoint" />
            <mxPoint x="570" y="313.75" as="targetPoint" />
          </mxGeometry>
        </mxCell>
        <mxCell id="vZn9mswB0erQc4P9EEzg-18" value="&lt;font style=&quot;font-size: 10px;&quot;&gt;user name and password page&lt;/font&gt;" style="text;html=1;align=center;verticalAlign=middle;resizable=0;points=[];autosize=1;strokeColor=none;fillColor=none;" parent="vZn9mswB0erQc4P9EEzg-1" vertex="1">
          <mxGeometry x="510" y="350" width="160" height="30" as="geometry" />
        </mxCell>
        <mxCell id="vZn9mswB0erQc4P9EEzg-20" value="" style="html=1;points=[];perimeter=orthogonalPerimeter;" parent="vZn9mswB0erQc4P9EEzg-1" vertex="1">
          <mxGeometry x="570" y="400" width="10" height="250" as="geometry" />
        </mxCell>
        <mxCell id="vZn9mswB0erQc4P9EEzg-23" value="User" style="shape=umlActor;verticalLabelPosition=bottom;verticalAlign=top;html=1;outlineConnect=0;" parent="vZn9mswB0erQc4P9EEzg-1" vertex="1">
          <mxGeometry x="190" y="100" width="30" height="60" as="geometry" />
        </mxCell>
        <mxCell id="vZn9mswB0erQc4P9EEzg-24" value="" style="endArrow=none;dashed=1;html=1;rounded=0;" parent="vZn9mswB0erQc4P9EEzg-1" edge="1">
          <mxGeometry width="50" height="50" relative="1" as="geometry">
            <mxPoint x="715" y="285" as="sourcePoint" />
            <mxPoint x="715" y="180" as="targetPoint" />
          </mxGeometry>
        </mxCell>
        <mxCell id="vZn9mswB0erQc4P9EEzg-25" value="" style="ellipse;whiteSpace=wrap;html=1;aspect=fixed;" parent="vZn9mswB0erQc4P9EEzg-1" vertex="1">
          <mxGeometry x="690" y="100" width="50" height="50" as="geometry" />
        </mxCell>
        <mxCell id="vZn9mswB0erQc4P9EEzg-26" value="" style="endArrow=classic;html=1;rounded=0;" parent="vZn9mswB0erQc4P9EEzg-1" edge="1">
          <mxGeometry width="50" height="50" relative="1" as="geometry">
            <mxPoint x="730" y="100" as="sourcePoint" />
            <mxPoint x="720" y="100" as="targetPoint" />
            <Array as="points">
              <mxPoint x="720" y="100" />
            </Array>
          </mxGeometry>
        </mxCell>
        <mxCell id="vZn9mswB0erQc4P9EEzg-27" value="system" style="text;html=1;align=center;verticalAlign=middle;resizable=0;points=[];autosize=1;strokeColor=none;fillColor=none;" parent="vZn9mswB0erQc4P9EEzg-1" vertex="1">
          <mxGeometry x="685" y="150" width="60" height="30" as="geometry" />
        </mxCell>
        <mxCell id="alAMkAdZxdeFhFP3GcDx-0" value="" style="endArrow=none;dashed=1;html=1;rounded=0;" parent="vZn9mswB0erQc4P9EEzg-1" edge="1">
          <mxGeometry width="50" height="50" relative="1" as="geometry">
            <mxPoint x="575" y="400" as="sourcePoint" />
            <mxPoint x="574.71" y="380" as="targetPoint" />
          </mxGeometry>
        </mxCell>
        <mxCell id="alAMkAdZxdeFhFP3GcDx-1" value="" style="endArrow=classic;html=1;rounded=0;exitX=0.629;exitY=-0.003;exitDx=0;exitDy=0;exitPerimeter=0;" parent="vZn9mswB0erQc4P9EEzg-1" source="vZn9mswB0erQc4P9EEzg-20" target="vZn9mswB0erQc4P9EEzg-2" edge="1">
          <mxGeometry width="50" height="50" relative="1" as="geometry">
            <mxPoint x="450" y="460" as="sourcePoint" />
            <mxPoint x="500" y="410" as="targetPoint" />
          </mxGeometry>
        </mxCell>
        <mxCell id="alAMkAdZxdeFhFP3GcDx-2" value="2: Display()" style="text;html=1;align=center;verticalAlign=middle;resizable=0;points=[];autosize=1;strokeColor=none;fillColor=none;" parent="vZn9mswB0erQc4P9EEzg-1" vertex="1">
          <mxGeometry x="360" y="370" width="80" height="30" as="geometry" />
        </mxCell>
        <mxCell id="alAMkAdZxdeFhFP3GcDx-3" value="3: Fill and Submit" style="html=1;verticalAlign=bottom;endArrow=open;dashed=1;endSize=8;entryX=0.024;entryY=-0.087;entryDx=0;entryDy=0;entryPerimeter=0;exitX=1.36;exitY=0.452;exitDx=0;exitDy=0;exitPerimeter=0;" parent="vZn9mswB0erQc4P9EEzg-1" source="vZn9mswB0erQc4P9EEzg-2" target="alAMkAdZxdeFhFP3GcDx-5" edge="1">
          <mxGeometry x="0.0109" y="-2" relative="1" as="geometry">
            <mxPoint x="304" y="450" as="sourcePoint" />
            <mxPoint x="210" y="450" as="targetPoint" />
            <mxPoint as="offset" />
          </mxGeometry>
        </mxCell>
        <mxCell id="alAMkAdZxdeFhFP3GcDx-4" value="" style="endArrow=classic;html=1;rounded=0;entryX=0.952;entryY=1.113;entryDx=0;entryDy=0;entryPerimeter=0;" parent="vZn9mswB0erQc4P9EEzg-1" target="alAMkAdZxdeFhFP3GcDx-5" edge="1">
          <mxGeometry width="50" height="50" relative="1" as="geometry">
            <mxPoint x="580" y="474.71" as="sourcePoint" />
            <mxPoint x="690" y="474.71" as="targetPoint" />
          </mxGeometry>
        </mxCell>
        <mxCell id="alAMkAdZxdeFhFP3GcDx-5" value="4. Send for Validation()" style="text;html=1;align=center;verticalAlign=middle;resizable=0;points=[];autosize=1;strokeColor=none;fillColor=none;" parent="vZn9mswB0erQc4P9EEzg-1" vertex="1">
          <mxGeometry x="570" y="440" width="150" height="30" as="geometry" />
        </mxCell>
        <mxCell id="alAMkAdZxdeFhFP3GcDx-6" value="" style="endArrow=classic;html=1;rounded=0;" parent="vZn9mswB0erQc4P9EEzg-1" target="vZn9mswB0erQc4P9EEzg-11" edge="1">
          <mxGeometry width="50" height="50" relative="1" as="geometry">
            <mxPoint x="720" y="500" as="sourcePoint" />
            <mxPoint x="770" y="450" as="targetPoint" />
            <Array as="points">
              <mxPoint x="760" y="500" />
              <mxPoint x="760" y="540" />
            </Array>
          </mxGeometry>
        </mxCell>
        <mxCell id="alAMkAdZxdeFhFP3GcDx-7" value="4.1 Validation()" style="text;html=1;align=center;verticalAlign=middle;resizable=0;points=[];autosize=1;strokeColor=none;fillColor=none;" parent="vZn9mswB0erQc4P9EEzg-1" vertex="1">
          <mxGeometry x="760" y="505" width="100" height="30" as="geometry" />
        </mxCell>
        <mxCell id="alAMkAdZxdeFhFP3GcDx-8" value="" style="endArrow=classic;html=1;rounded=0;exitX=-0.12;exitY=0.837;exitDx=0;exitDy=0;exitPerimeter=0;entryX=1;entryY=0.665;entryDx=0;entryDy=0;entryPerimeter=0;" parent="vZn9mswB0erQc4P9EEzg-1" source="vZn9mswB0erQc4P9EEzg-11" target="vZn9mswB0erQc4P9EEzg-20" edge="1">
          <mxGeometry width="50" height="50" relative="1" as="geometry">
            <mxPoint x="280" y="520" as="sourcePoint" />
            <mxPoint x="330" y="470" as="targetPoint" />
          </mxGeometry>
        </mxCell>
        <mxCell id="alAMkAdZxdeFhFP3GcDx-9" value="4.2 Destroy()" style="text;html=1;align=center;verticalAlign=middle;resizable=0;points=[];autosize=1;strokeColor=none;fillColor=none;" parent="vZn9mswB0erQc4P9EEzg-1" vertex="1">
          <mxGeometry x="600" y="535" width="90" height="30" as="geometry" />
        </mxCell>
        <mxCell id="alAMkAdZxdeFhFP3GcDx-10" value="" style="ellipse;whiteSpace=wrap;html=1;aspect=fixed;" parent="vZn9mswB0erQc4P9EEzg-1" vertex="1">
          <mxGeometry x="340" y="587.5" width="25" height="25" as="geometry" />
        </mxCell>
        <mxCell id="alAMkAdZxdeFhFP3GcDx-11" value="" style="endArrow=none;html=1;rounded=0;" parent="vZn9mswB0erQc4P9EEzg-1" edge="1">
          <mxGeometry width="50" height="50" relative="1" as="geometry">
            <mxPoint x="320" y="599.5" as="sourcePoint" />
            <mxPoint x="340" y="599.6299999999999" as="targetPoint" />
          </mxGeometry>
        </mxCell>
        <mxCell id="alAMkAdZxdeFhFP3GcDx-12" value="" style="endArrow=none;html=1;rounded=0;" parent="vZn9mswB0erQc4P9EEzg-1" edge="1">
          <mxGeometry width="50" height="50" relative="1" as="geometry">
            <mxPoint x="320" y="612.5" as="sourcePoint" />
            <mxPoint x="320" y="580" as="targetPoint" />
          </mxGeometry>
        </mxCell>
        <mxCell id="alAMkAdZxdeFhFP3GcDx-13" value="4.3: createAndRedirect()" style="html=1;verticalAlign=bottom;endArrow=open;dashed=1;endSize=8;exitX=-0.28;exitY=0.939;exitDx=0;exitDy=0;exitPerimeter=0;" parent="vZn9mswB0erQc4P9EEzg-1" source="vZn9mswB0erQc4P9EEzg-11" edge="1">
          <mxGeometry x="0.0109" y="-2" relative="1" as="geometry">
            <mxPoint x="459" y="599.5" as="sourcePoint" />
            <mxPoint x="365" y="599.5" as="targetPoint" />
            <mxPoint as="offset" />
          </mxGeometry>
        </mxCell>
        <mxCell id="alAMkAdZxdeFhFP3GcDx-14" value="" style="endArrow=none;dashed=1;html=1;rounded=0;" parent="vZn9mswB0erQc4P9EEzg-1" source="alAMkAdZxdeFhFP3GcDx-16" edge="1">
          <mxGeometry width="50" height="50" relative="1" as="geometry">
            <mxPoint x="340" y="730" as="sourcePoint" />
            <mxPoint x="339.5" y="642.5" as="targetPoint" />
          </mxGeometry>
        </mxCell>
        <mxCell id="alAMkAdZxdeFhFP3GcDx-15" value="DashBoard" style="text;html=1;align=center;verticalAlign=middle;resizable=0;points=[];autosize=1;strokeColor=none;fillColor=none;" parent="vZn9mswB0erQc4P9EEzg-1" vertex="1">
          <mxGeometry x="300" y="612.5" width="80" height="30" as="geometry" />
        </mxCell>
        <mxCell id="alAMkAdZxdeFhFP3GcDx-17" value="" style="endArrow=none;dashed=1;html=1;rounded=0;" parent="vZn9mswB0erQc4P9EEzg-1" target="alAMkAdZxdeFhFP3GcDx-16" edge="1">
          <mxGeometry width="50" height="50" relative="1" as="geometry">
            <mxPoint x="340" y="730" as="sourcePoint" />
            <mxPoint x="339.5" y="642.5" as="targetPoint" />
          </mxGeometry>
        </mxCell>
        <mxCell id="alAMkAdZxdeFhFP3GcDx-16" value="" style="html=1;points=[];perimeter=orthogonalPerimeter;" parent="vZn9mswB0erQc4P9EEzg-1" vertex="1">
          <mxGeometry x="335" y="650" width="10" height="30" as="geometry" />
        </mxCell>
        <mxCell id="alAMkAdZxdeFhFP3GcDx-18" value="" style="endArrow=classic;html=1;rounded=0;entryX=1.2;entryY=0.866;entryDx=0;entryDy=0;entryPerimeter=0;" parent="vZn9mswB0erQc4P9EEzg-1" target="vZn9mswB0erQc4P9EEzg-2" edge="1">
          <mxGeometry width="50" height="50" relative="1" as="geometry">
            <mxPoint x="330" y="658" as="sourcePoint" />
            <mxPoint x="330" y="570" as="targetPoint" />
          </mxGeometry>
        </mxCell>
        <mxCell id="alAMkAdZxdeFhFP3GcDx-19" value="5: Display()" style="text;html=1;align=center;verticalAlign=middle;resizable=0;points=[];autosize=1;strokeColor=none;fillColor=none;" parent="vZn9mswB0erQc4P9EEzg-1" vertex="1">
          <mxGeometry x="235" y="630" width="80" height="30" as="geometry" />
        </mxCell>
        <mxCell id="alAMkAdZxdeFhFP3GcDx-20" value="" style="endArrow=none;dashed=1;html=1;rounded=0;" parent="vZn9mswB0erQc4P9EEzg-1" edge="1">
          <mxGeometry width="50" height="50" relative="1" as="geometry">
            <mxPoint x="485" y="720" as="sourcePoint" />
            <mxPoint x="484.5" y="690" as="targetPoint" />
          </mxGeometry>
        </mxCell>
        <mxCell id="alAMkAdZxdeFhFP3GcDx-21" value="" style="endArrow=none;html=1;rounded=0;exitX=0.76;exitY=1.01;exitDx=0;exitDy=0;exitPerimeter=0;" parent="vZn9mswB0erQc4P9EEzg-1" edge="1">
          <mxGeometry width="50" height="50" relative="1" as="geometry">
            <mxPoint x="574.5999999999999" y="649.5" as="sourcePoint" />
            <mxPoint x="575" y="667" as="targetPoint" />
          </mxGeometry>
        </mxCell>
        <mxCell id="alAMkAdZxdeFhFP3GcDx-22" value="" style="shape=umlDestroy;whiteSpace=wrap;html=1;strokeWidth=3;targetShapes=umlLifeline;" parent="vZn9mswB0erQc4P9EEzg-1" vertex="1">
          <mxGeometry x="565" y="660" width="20" height="20" as="geometry" />
        </mxCell>
      </root>
    </mxGraphModel>
  </diagram>
  <diagram name="12_CreateEmployeeShift" id="Jb3cezOOEkdy2_dfQzDn">
    <mxGraphModel dx="1290" dy="669" grid="1" gridSize="10" guides="1" tooltips="1" connect="1" arrows="1" fold="1" page="1" pageScale="1" pageWidth="1100" pageHeight="1700" math="0" shadow="0">
      <root>
        <mxCell id="sgZ2x88xV0pXpAueVrqr-0" />
        <mxCell id="sgZ2x88xV0pXpAueVrqr-1" parent="sgZ2x88xV0pXpAueVrqr-0" />
        <mxCell id="sgZ2x88xV0pXpAueVrqr-2" value="" style="html=1;points=[];perimeter=orthogonalPerimeter;" parent="sgZ2x88xV0pXpAueVrqr-1" vertex="1">
          <mxGeometry x="200" y="190" width="10" height="470" as="geometry" />
        </mxCell>
        <mxCell id="sgZ2x88xV0pXpAueVrqr-3" value="" style="html=1;points=[];perimeter=orthogonalPerimeter;" parent="sgZ2x88xV0pXpAueVrqr-1" vertex="1">
          <mxGeometry x="480" y="250" width="10" height="300" as="geometry" />
        </mxCell>
        <mxCell id="sgZ2x88xV0pXpAueVrqr-4" value="" style="endArrow=classic;html=1;rounded=0;exitX=1.12;exitY=0.162;exitDx=0;exitDy=0;exitPerimeter=0;" parent="sgZ2x88xV0pXpAueVrqr-1" source="sgZ2x88xV0pXpAueVrqr-2" target="sgZ2x88xV0pXpAueVrqr-3" edge="1">
          <mxGeometry width="50" height="50" relative="1" as="geometry">
            <mxPoint x="500" y="530" as="sourcePoint" />
            <mxPoint x="550" y="480" as="targetPoint" />
          </mxGeometry>
        </mxCell>
        <mxCell id="sgZ2x88xV0pXpAueVrqr-5" value="1. click()" style="text;html=1;align=center;verticalAlign=middle;resizable=0;points=[];autosize=1;strokeColor=none;fillColor=none;" parent="sgZ2x88xV0pXpAueVrqr-1" vertex="1">
          <mxGeometry x="315" y="240" width="70" height="30" as="geometry" />
        </mxCell>
        <mxCell id="sgZ2x88xV0pXpAueVrqr-6" value="" style="endArrow=none;dashed=1;html=1;rounded=0;" parent="sgZ2x88xV0pXpAueVrqr-1" edge="1">
          <mxGeometry width="50" height="50" relative="1" as="geometry">
            <mxPoint x="484.57000000000005" y="250" as="sourcePoint" />
            <mxPoint x="484.57000000000005" y="180" as="targetPoint" />
          </mxGeometry>
        </mxCell>
        <mxCell id="sgZ2x88xV0pXpAueVrqr-7" value="" style="ellipse;whiteSpace=wrap;html=1;aspect=fixed;" parent="sgZ2x88xV0pXpAueVrqr-1" vertex="1">
          <mxGeometry x="460" y="100" width="50" height="50" as="geometry" />
        </mxCell>
        <mxCell id="sgZ2x88xV0pXpAueVrqr-8" value="" style="endArrow=none;html=1;rounded=0;" parent="sgZ2x88xV0pXpAueVrqr-1" edge="1">
          <mxGeometry width="50" height="50" relative="1" as="geometry">
            <mxPoint x="400" y="130" as="sourcePoint" />
            <mxPoint x="460" y="129.41" as="targetPoint" />
          </mxGeometry>
        </mxCell>
        <mxCell id="sgZ2x88xV0pXpAueVrqr-9" value="" style="endArrow=none;html=1;rounded=0;" parent="sgZ2x88xV0pXpAueVrqr-1" edge="1">
          <mxGeometry width="50" height="50" relative="1" as="geometry">
            <mxPoint x="400" y="155" as="sourcePoint" />
            <mxPoint x="400" y="95" as="targetPoint" />
          </mxGeometry>
        </mxCell>
        <mxCell id="sgZ2x88xV0pXpAueVrqr-10" value="Create Employee Shift button" style="text;html=1;align=center;verticalAlign=middle;resizable=0;points=[];autosize=1;strokeColor=none;fillColor=none;" parent="sgZ2x88xV0pXpAueVrqr-1" vertex="1">
          <mxGeometry x="390" y="150" width="180" height="30" as="geometry" />
        </mxCell>
        <mxCell id="sgZ2x88xV0pXpAueVrqr-11" value="" style="html=1;points=[];perimeter=orthogonalPerimeter;" parent="sgZ2x88xV0pXpAueVrqr-1" vertex="1">
          <mxGeometry x="875" y="290" width="10" height="350" as="geometry" />
        </mxCell>
        <mxCell id="sgZ2x88xV0pXpAueVrqr-12" value="1.1 sendRequest()" style="text;html=1;align=center;verticalAlign=middle;resizable=0;points=[];autosize=1;strokeColor=none;fillColor=none;" parent="sgZ2x88xV0pXpAueVrqr-1" vertex="1">
          <mxGeometry x="615" y="260" width="120" height="30" as="geometry" />
        </mxCell>
        <mxCell id="sgZ2x88xV0pXpAueVrqr-13" value="1.1.1 create()" style="html=1;verticalAlign=bottom;endArrow=open;dashed=1;endSize=8;exitX=-0.26;exitY=0.134;exitDx=0;exitDy=0;exitPerimeter=0;" parent="sgZ2x88xV0pXpAueVrqr-1" source="sgZ2x88xV0pXpAueVrqr-11" edge="1">
          <mxGeometry x="0.0109" y="-2" relative="1" as="geometry">
            <mxPoint x="710" y="336.25" as="sourcePoint" />
            <mxPoint x="640" y="336" as="targetPoint" />
            <mxPoint as="offset" />
          </mxGeometry>
        </mxCell>
        <mxCell id="sgZ2x88xV0pXpAueVrqr-14" value="" style="ellipse;whiteSpace=wrap;html=1;aspect=fixed;" parent="sgZ2x88xV0pXpAueVrqr-1" vertex="1">
          <mxGeometry x="590" y="321.25" width="25" height="25" as="geometry" />
        </mxCell>
        <mxCell id="sgZ2x88xV0pXpAueVrqr-15" value="" style="endArrow=none;html=1;rounded=0;" parent="sgZ2x88xV0pXpAueVrqr-1" edge="1">
          <mxGeometry width="50" height="50" relative="1" as="geometry">
            <mxPoint x="570" y="333.25" as="sourcePoint" />
            <mxPoint x="590" y="333.37999999999994" as="targetPoint" />
          </mxGeometry>
        </mxCell>
        <mxCell id="sgZ2x88xV0pXpAueVrqr-16" value="" style="endArrow=none;html=1;rounded=0;" parent="sgZ2x88xV0pXpAueVrqr-1" edge="1">
          <mxGeometry width="50" height="50" relative="1" as="geometry">
            <mxPoint x="570" y="346.25" as="sourcePoint" />
            <mxPoint x="570" y="313.75" as="targetPoint" />
          </mxGeometry>
        </mxCell>
        <mxCell id="sgZ2x88xV0pXpAueVrqr-17" value="list of all the employees" style="text;html=1;align=center;verticalAlign=middle;resizable=0;points=[];autosize=1;strokeColor=none;fillColor=none;" parent="sgZ2x88xV0pXpAueVrqr-1" vertex="1">
          <mxGeometry x="527.5" y="346.25" width="150" height="30" as="geometry" />
        </mxCell>
        <mxCell id="sgZ2x88xV0pXpAueVrqr-18" value="" style="endArrow=none;dashed=1;html=1;rounded=0;entryX=0.413;entryY=1.004;entryDx=0;entryDy=0;entryPerimeter=0;" parent="sgZ2x88xV0pXpAueVrqr-1" target="sgZ2x88xV0pXpAueVrqr-3" edge="1">
          <mxGeometry width="50" height="50" relative="1" as="geometry">
            <mxPoint x="484" y="670" as="sourcePoint" />
            <mxPoint x="540" y="430" as="targetPoint" />
          </mxGeometry>
        </mxCell>
        <mxCell id="sgZ2x88xV0pXpAueVrqr-19" value="" style="html=1;points=[];perimeter=orthogonalPerimeter;" parent="sgZ2x88xV0pXpAueVrqr-1" vertex="1">
          <mxGeometry x="570" y="395" width="10" height="145" as="geometry" />
        </mxCell>
        <mxCell id="sgZ2x88xV0pXpAueVrqr-20" value="Manager" style="shape=umlActor;verticalLabelPosition=bottom;verticalAlign=top;html=1;outlineConnect=0;" parent="sgZ2x88xV0pXpAueVrqr-1" vertex="1">
          <mxGeometry x="190" y="100" width="30" height="60" as="geometry" />
        </mxCell>
        <mxCell id="sgZ2x88xV0pXpAueVrqr-21" value="" style="endArrow=none;dashed=1;html=1;rounded=0;" parent="sgZ2x88xV0pXpAueVrqr-1" edge="1">
          <mxGeometry width="50" height="50" relative="1" as="geometry">
            <mxPoint x="880" y="285" as="sourcePoint" />
            <mxPoint x="880" y="180" as="targetPoint" />
          </mxGeometry>
        </mxCell>
        <mxCell id="sgZ2x88xV0pXpAueVrqr-22" value="" style="ellipse;whiteSpace=wrap;html=1;aspect=fixed;" parent="sgZ2x88xV0pXpAueVrqr-1" vertex="1">
          <mxGeometry x="855" y="100" width="50" height="50" as="geometry" />
        </mxCell>
        <mxCell id="sgZ2x88xV0pXpAueVrqr-23" value="" style="endArrow=classic;html=1;rounded=0;" parent="sgZ2x88xV0pXpAueVrqr-1" edge="1">
          <mxGeometry width="50" height="50" relative="1" as="geometry">
            <mxPoint x="895" y="100" as="sourcePoint" />
            <mxPoint x="885" y="100" as="targetPoint" />
            <Array as="points">
              <mxPoint x="885" y="100" />
            </Array>
          </mxGeometry>
        </mxCell>
        <mxCell id="sgZ2x88xV0pXpAueVrqr-24" value="system" style="text;html=1;align=center;verticalAlign=middle;resizable=0;points=[];autosize=1;strokeColor=none;fillColor=none;" parent="sgZ2x88xV0pXpAueVrqr-1" vertex="1">
          <mxGeometry x="850" y="150" width="60" height="30" as="geometry" />
        </mxCell>
        <mxCell id="sgZ2x88xV0pXpAueVrqr-25" value="" style="endArrow=none;dashed=1;html=1;rounded=0;entryX=0.536;entryY=1.002;entryDx=0;entryDy=0;entryPerimeter=0;" parent="sgZ2x88xV0pXpAueVrqr-1" target="sgZ2x88xV0pXpAueVrqr-19" edge="1">
          <mxGeometry width="50" height="50" relative="1" as="geometry">
            <mxPoint x="575" y="670" as="sourcePoint" />
            <mxPoint x="575" y="550" as="targetPoint" />
          </mxGeometry>
        </mxCell>
        <mxCell id="sgZ2x88xV0pXpAueVrqr-26" value="" style="endArrow=none;dashed=1;html=1;rounded=0;exitX=0.39;exitY=1.028;exitDx=0;exitDy=0;exitPerimeter=0;" parent="sgZ2x88xV0pXpAueVrqr-1" edge="1">
          <mxGeometry width="50" height="50" relative="1" as="geometry">
            <mxPoint x="664.9000000000001" y="580.8399999999999" as="sourcePoint" />
            <mxPoint x="665" y="620" as="targetPoint" />
            <Array as="points">
              <mxPoint x="665" y="600" />
            </Array>
          </mxGeometry>
        </mxCell>
        <mxCell id="sgZ2x88xV0pXpAueVrqr-29" value="" style="endArrow=classic;html=1;rounded=0;entryX=-0.184;entryY=0.008;entryDx=0;entryDy=0;entryPerimeter=0;exitX=1.152;exitY=0.143;exitDx=0;exitDy=0;exitPerimeter=0;" parent="sgZ2x88xV0pXpAueVrqr-1" source="sgZ2x88xV0pXpAueVrqr-3" target="sgZ2x88xV0pXpAueVrqr-11" edge="1">
          <mxGeometry width="50" height="50" relative="1" as="geometry">
            <mxPoint x="560" y="310" as="sourcePoint" />
            <mxPoint x="610" y="260" as="targetPoint" />
          </mxGeometry>
        </mxCell>
        <mxCell id="sgZ2x88xV0pXpAueVrqr-30" value="" style="endArrow=classic;html=1;rounded=0;entryX=1.067;entryY=0.432;entryDx=0;entryDy=0;entryPerimeter=0;" parent="sgZ2x88xV0pXpAueVrqr-1" source="sgZ2x88xV0pXpAueVrqr-19" target="sgZ2x88xV0pXpAueVrqr-2" edge="1">
          <mxGeometry width="50" height="50" relative="1" as="geometry">
            <mxPoint x="520" y="470" as="sourcePoint" />
            <mxPoint x="570" y="420" as="targetPoint" />
          </mxGeometry>
        </mxCell>
        <mxCell id="sgZ2x88xV0pXpAueVrqr-31" value="2: Display()" style="text;html=1;align=center;verticalAlign=middle;resizable=0;points=[];autosize=1;strokeColor=none;fillColor=none;" parent="sgZ2x88xV0pXpAueVrqr-1" vertex="1">
          <mxGeometry x="340" y="365" width="80" height="30" as="geometry" />
        </mxCell>
        <mxCell id="sgZ2x88xV0pXpAueVrqr-32" value="3: SelectEmployee()" style="html=1;verticalAlign=bottom;endArrow=open;dashed=1;endSize=8;exitX=1;exitY=0.514;exitDx=0;exitDy=0;exitPerimeter=0;entryX=-0.333;entryY=0.275;entryDx=0;entryDy=0;entryPerimeter=0;" parent="sgZ2x88xV0pXpAueVrqr-1" source="sgZ2x88xV0pXpAueVrqr-2" target="sgZ2x88xV0pXpAueVrqr-19" edge="1">
          <mxGeometry x="0.0109" y="-2" relative="1" as="geometry">
            <mxPoint x="210" y="460" as="sourcePoint" />
            <mxPoint x="560" y="460" as="targetPoint" />
            <mxPoint as="offset" />
          </mxGeometry>
        </mxCell>
        <mxCell id="sgZ2x88xV0pXpAueVrqr-33" value="" style="endArrow=classic;html=1;rounded=0;entryX=-0.033;entryY=0.517;entryDx=0;entryDy=0;entryPerimeter=0;exitX=1.133;exitY=0.509;exitDx=0;exitDy=0;exitPerimeter=0;" parent="sgZ2x88xV0pXpAueVrqr-1" source="sgZ2x88xV0pXpAueVrqr-19" target="sgZ2x88xV0pXpAueVrqr-11" edge="1">
          <mxGeometry width="50" height="50" relative="1" as="geometry">
            <mxPoint x="520" y="540" as="sourcePoint" />
            <mxPoint x="570" y="490" as="targetPoint" />
          </mxGeometry>
        </mxCell>
        <mxCell id="sgZ2x88xV0pXpAueVrqr-38" value="" style="ellipse;whiteSpace=wrap;html=1;aspect=fixed;" parent="sgZ2x88xV0pXpAueVrqr-1" vertex="1">
          <mxGeometry x="652.5" y="525" width="25" height="25" as="geometry" />
        </mxCell>
        <mxCell id="sgZ2x88xV0pXpAueVrqr-39" value="" style="endArrow=none;html=1;rounded=0;" parent="sgZ2x88xV0pXpAueVrqr-1" edge="1">
          <mxGeometry width="50" height="50" relative="1" as="geometry">
            <mxPoint x="632.5" y="537" as="sourcePoint" />
            <mxPoint x="652.5" y="537.1299999999999" as="targetPoint" />
          </mxGeometry>
        </mxCell>
        <mxCell id="sgZ2x88xV0pXpAueVrqr-40" value="" style="endArrow=none;html=1;rounded=0;" parent="sgZ2x88xV0pXpAueVrqr-1" edge="1">
          <mxGeometry width="50" height="50" relative="1" as="geometry">
            <mxPoint x="632.5" y="550" as="sourcePoint" />
            <mxPoint x="632.5" y="517.5" as="targetPoint" />
          </mxGeometry>
        </mxCell>
        <mxCell id="sgZ2x88xV0pXpAueVrqr-41" value="employee&#39;s working hours and days" style="text;html=1;align=center;verticalAlign=middle;resizable=0;points=[];autosize=1;strokeColor=none;fillColor=none;" parent="sgZ2x88xV0pXpAueVrqr-1" vertex="1">
          <mxGeometry x="580" y="550" width="210" height="30" as="geometry" />
        </mxCell>
        <mxCell id="sgZ2x88xV0pXpAueVrqr-42" value="" style="html=1;points=[];perimeter=orthogonalPerimeter;" parent="sgZ2x88xV0pXpAueVrqr-1" vertex="1">
          <mxGeometry x="660" y="600" width="10" height="50" as="geometry" />
        </mxCell>
        <mxCell id="M3h7JTolkiwy5XkorZAb-0" value="" style="endArrow=none;dashed=1;html=1;rounded=0;" parent="sgZ2x88xV0pXpAueVrqr-1" edge="1">
          <mxGeometry width="50" height="50" relative="1" as="geometry">
            <mxPoint x="574.58" y="375" as="sourcePoint" />
            <mxPoint x="574.58" y="395" as="targetPoint" />
          </mxGeometry>
        </mxCell>
        <mxCell id="M3h7JTolkiwy5XkorZAb-1" value="4: feedBack()" style="text;html=1;align=center;verticalAlign=middle;resizable=0;points=[];autosize=1;strokeColor=none;fillColor=none;" parent="sgZ2x88xV0pXpAueVrqr-1" vertex="1">
          <mxGeometry x="677.5" y="440" width="90" height="30" as="geometry" />
        </mxCell>
        <mxCell id="M3h7JTolkiwy5XkorZAb-2" value="4.1: Create()" style="html=1;verticalAlign=bottom;endArrow=open;dashed=1;endSize=8;" parent="sgZ2x88xV0pXpAueVrqr-1" edge="1">
          <mxGeometry x="0.0109" y="-2" relative="1" as="geometry">
            <mxPoint x="875" y="537.08" as="sourcePoint" />
            <mxPoint x="690" y="537.1600000000001" as="targetPoint" />
            <mxPoint as="offset" />
          </mxGeometry>
        </mxCell>
        <mxCell id="M3h7JTolkiwy5XkorZAb-3" value="" style="endArrow=classic;html=1;rounded=0;entryX=0.933;entryY=0.871;entryDx=0;entryDy=0;entryPerimeter=0;" parent="sgZ2x88xV0pXpAueVrqr-1" source="sgZ2x88xV0pXpAueVrqr-42" target="sgZ2x88xV0pXpAueVrqr-2" edge="1">
          <mxGeometry width="50" height="50" relative="1" as="geometry">
            <mxPoint x="650" y="550" as="sourcePoint" />
            <mxPoint x="700" y="500" as="targetPoint" />
          </mxGeometry>
        </mxCell>
        <mxCell id="M3h7JTolkiwy5XkorZAb-4" value="5: Display()" style="text;html=1;align=center;verticalAlign=middle;resizable=0;points=[];autosize=1;strokeColor=none;fillColor=none;" parent="sgZ2x88xV0pXpAueVrqr-1" vertex="1">
          <mxGeometry x="400" y="570" width="80" height="30" as="geometry" />
        </mxCell>
        <mxCell id="M3h7JTolkiwy5XkorZAb-5" value="6: ChoosenWorkingHours()" style="html=1;verticalAlign=bottom;endArrow=open;dashed=1;endSize=8;" parent="sgZ2x88xV0pXpAueVrqr-1" target="sgZ2x88xV0pXpAueVrqr-42" edge="1">
          <mxGeometry x="0.0109" y="-2" relative="1" as="geometry">
            <mxPoint x="210" y="624.58" as="sourcePoint" />
            <mxPoint x="435" y="624.58" as="targetPoint" />
            <mxPoint as="offset" />
          </mxGeometry>
        </mxCell>
        <mxCell id="M3h7JTolkiwy5XkorZAb-6" value="" style="endArrow=classic;html=1;rounded=0;exitX=1.267;exitY=0.79;exitDx=0;exitDy=0;exitPerimeter=0;entryX=0.033;entryY=1;entryDx=0;entryDy=0;entryPerimeter=0;" parent="sgZ2x88xV0pXpAueVrqr-1" source="sgZ2x88xV0pXpAueVrqr-42" target="sgZ2x88xV0pXpAueVrqr-11" edge="1">
          <mxGeometry width="50" height="50" relative="1" as="geometry">
            <mxPoint x="650" y="550" as="sourcePoint" />
            <mxPoint x="870" y="640" as="targetPoint" />
          </mxGeometry>
        </mxCell>
        <mxCell id="M3h7JTolkiwy5XkorZAb-8" value="7: updateEmployeeSchedule()" style="text;html=1;align=center;verticalAlign=middle;resizable=0;points=[];autosize=1;strokeColor=none;fillColor=none;" parent="sgZ2x88xV0pXpAueVrqr-1" vertex="1">
          <mxGeometry x="680" y="615" width="180" height="30" as="geometry" />
        </mxCell>
        <mxCell id="M3h7JTolkiwy5XkorZAb-10" value="" style="endArrow=none;dashed=1;html=1;rounded=0;" parent="sgZ2x88xV0pXpAueVrqr-1" edge="1">
          <mxGeometry width="50" height="50" relative="1" as="geometry">
            <mxPoint x="665" y="670" as="sourcePoint" />
            <mxPoint x="664.58" y="650" as="targetPoint" />
          </mxGeometry>
        </mxCell>
      </root>
    </mxGraphModel>
  </diagram>
</mxfile>
